<?xml version="1.0" encoding="UTF-8" standalone="no"?>
<svg
   xmlns:dc="http://purl.org/dc/elements/1.1/"
   xmlns:cc="http://creativecommons.org/ns#"
   xmlns:rdf="http://www.w3.org/1999/02/22-rdf-syntax-ns#"
   xmlns:svg="http://www.w3.org/2000/svg"
   xmlns="http://www.w3.org/2000/svg"
   xmlns:xlink="http://www.w3.org/1999/xlink"
   xmlns:sodipodi="http://sodipodi.sourceforge.net/DTD/sodipodi-0.dtd"
   xmlns:inkscape="http://www.inkscape.org/namespaces/inkscape"
   id="svg2327"
   viewBox="0 0 48 48"
   version="1.1"
   inkscape:version="0.91 r13725"
   sodipodi:docname="computer-green-unix.svg">
  <sodipodi:namedview
     pagecolor="#ffffff"
     bordercolor="#666666"
     borderopacity="1"
     objecttolerance="10"
     gridtolerance="10"
     guidetolerance="10"
     inkscape:pageopacity="0"
     inkscape:pageshadow="2"
     inkscape:window-width="1916"
     inkscape:window-height="1035"
     id="namedview8365"
     showgrid="false"
     inkscape:zoom="10.62"
     inkscape:cx="23.011299"
     inkscape:cy="19.688843"
     inkscape:window-x="4"
     inkscape:window-y="1"
     inkscape:window-maximized="1"
     inkscape:current-layer="svg2327" />
  <defs
     id="defs3">
    <linearGradient
       id="linearGradient2245">
      <stop
         id="stop2247"
         stop-color="#dde1d9"
         offset="0" />
      <stop
         id="stop2249"
         stop-color="#cacdc6"
         offset="1" />
    </linearGradient>
    <linearGradient
       id="linearGradient2251"
       x1="8.6116"
       xlink:href="#linearGradient2245"
       gradientUnits="userSpaceOnUse"
       y1="7.2294"
       gradientTransform="matrix(1.1299 0 0 .88506 -1.625 -1.3044)"
       x2="34.784"
       y2="33.34" />
    <linearGradient
       id="linearGradient2421"
       x1="17.698"
       gradientUnits="userSpaceOnUse"
       y1="13.005"
       gradientTransform="matrix(1.1081 0 0 .90247 1 1)"
       x2="34.975"
       y2="55.201">
      <stop
         id="stop2417"
         stop-color="#fff"
         offset="0" />
      <stop
         id="stop2419"
         stop-color="#fff"
         stop-opacity="0"
         offset="1" />
    </linearGradient>
    <radialGradient
       id="radialGradient2460"
       gradientUnits="userSpaceOnUse"
       cy="67.502"
       cx="12.576"
       gradientTransform="scale(1.9258 .51926)"
       r="8.7663">
      <stop
         id="stop2456"
         offset="0" />
      <stop
         id="stop2458"
         stop-opacity="0"
         offset="1" />
    </radialGradient>
    <linearGradient
       id="linearGradient2673"
       x1="11.492"
       gradientUnits="userSpaceOnUse"
       x2="17.199"
       gradientTransform="matrix(1.239 0 0 .89596 .59055 -1.3315)"
       y1="1.6538"
       y2="26.729">
      <stop
         id="stop2669"
         stop-color="#fff"
         offset="0" />
      <stop
         id="stop2671"
         stop-color="#fcfcff"
         stop-opacity="0"
         offset="1" />
    </linearGradient>
    <linearGradient
       id="linearGradient2681"
       x1="19.15"
       gradientUnits="userSpaceOnUse"
       x2="16.316"
       gradientTransform="matrix(1.1741 0 0 .94543 .72182 -1.3315)"
       y1="32.622"
       y2="8.8666">
      <stop
         id="stop2677"
         stop-color="#5b975b"
         offset="0" />
      <stop
         id="stop2679"
         stop-color="#1b431b"
         offset="1" />
    </linearGradient>
    <linearGradient
       id="linearGradient2689"
       x1="3.707"
       gradientUnits="userSpaceOnUse"
       x2="3.707"
       gradientTransform="matrix(5.7052 0 0 .17528 1 -.67937)"
       y1="171.29"
       y2="162.45">
      <stop
         id="stop2685"
         offset="0" />
      <stop
         id="stop2687"
         stop-opacity="0"
         offset="1" />
    </linearGradient>
    <linearGradient
       id="linearGradient2707"
       x1="12.207"
       gradientUnits="userSpaceOnUse"
       x2="12.128"
       gradientTransform="scale(1.8163 .55056)"
       y1="53.535"
       y2="64.893">
      <stop
         id="stop2703"
         stop-color="#585956"
         offset="0" />
      <stop
         id="stop2705"
         stop-color="#bbbeb8"
         offset="1" />
    </linearGradient>
    <linearGradient
       id="linearGradient2717"
       x1="34.301"
       gradientUnits="userSpaceOnUse"
       x2="35.521"
       y1="3.9384"
       y2="3.8451">
      <stop
         id="stop2713"
         stop-color="#909090"
         offset="0" />
      <stop
         id="stop2715"
         stop-color="#bebebe"
         stop-opacity="0"
         offset="1" />
    </linearGradient>
    <linearGradient
       id="linearGradient2741"
       x1="13.629"
       gradientUnits="userSpaceOnUse"
       x2="8.6485"
       gradientTransform="matrix(2.1436 0 0 .46650 1 -.50883)"
       y1="101.28"
       y2="74.098">
      <stop
         id="stop2637"
         stop-color="#f9fff5"
         offset="0" />
      <stop
         id="stop2639"
         stop-color="#f9fff5"
         stop-opacity="0"
         offset="1" />
    </linearGradient>
    <linearGradient
       id="linearGradient2758"
       x1="8.1134"
       gradientUnits="userSpaceOnUse"
       x2="8.1134"
       gradientTransform="scale(2.3099 .43293)"
       y1="88.509"
       y2="100.2">
      <stop
         id="stop2754"
         stop-color="#9d9d9d"
         offset="0" />
      <stop
         id="stop2756"
         stop-color="#b9b9b9"
         offset="1" />
    </linearGradient>
    <linearGradient
       id="linearGradient2979"
       x1="10.391"
       gradientUnits="userSpaceOnUse"
       x2="32.537"
       gradientTransform="scale(1.1044 .90547)"
       y1="5.3818"
       y2="31.246">
      <stop
         id="stop2255"
         stop-color="#8f8f8f"
         offset="0" />
      <stop
         id="stop2257"
         stop-color="#494949"
         offset="1" />
    </linearGradient>
    <linearGradient
       id="linearGradient2981"
       x1="18.317"
       xlink:href="#linearGradient2245"
       gradientUnits="userSpaceOnUse"
       x2="18.177"
       gradientTransform="scale(1.1299 .88506)"
       y1="48.643"
       y2="52.536" />
    <linearGradient
       id="linearGradient2991"
       x1="-23.886"
       gradientUnits="userSpaceOnUse"
       x2="-23.886"
       gradientTransform="scale(1.4929 .66985)"
       y1="49.953"
       y2="44.879">
      <stop
         id="stop2987"
         stop-color="#d8dfd6"
         offset="0" />
      <stop
         id="stop2989"
         stop-color="#d8dfd6"
         stop-opacity="0"
         offset="1" />
    </linearGradient>
    <filter
       inkscape:collect="always"
       style="color-interpolation-filters:sRGB"
       id="filter9739"
       x="-0.065041242"
       width="1.1300825"
       y="-0.21251902"
       height="1.425038">
      <feGaussianBlur
         inkscape:collect="always"
         stdDeviation="0.45661561"
         id="feGaussianBlur9741" />
    </filter>
  </defs>
  <g
     id="layer1" />
  <g
     id="g9769">
    <path
       fill="url(#radialGradient2460)"
       transform="matrix(1,0,0,1.3689,-1.9786,-13.617)"
       fill-rule="evenodd"
       d="m41.101 35.051a16.882 4.552 0 1 1 -33.765 0 16.882 4.552 0 1 1 33.765 0z"
       style="color:#000000"
       id="path2452" />
    <path
       fill="#adb0aa"
       stroke="#4b4d4a"
       transform="translate(57.533,3.2034)"
       fill-rule="evenodd"
       d="m-26.264 29.716a9.3944 3.9396 0 1 1 -18.789 0 9.3944 3.9396 0 1 1 18.789 0z"
       style="color:#000000"
       id="path2407" />
    <path
       fill="none"
       stroke="#7b7f7a"
       transform="matrix(0.94027,0,0,0.94027,55.404,4.2712)"
       d="m-26.264 29.716a9.3944 3.9396 0 1 1 -18.789 0 9.3944 3.9396 0 1 1 18.789 0z"
       style="color:#000000"
       id="path1825" />
    <path
       fill="none"
       stroke-width=".68065"
       stroke="url(#linearGradient2991)"
       transform="matrix(0.94027,0,0,0.94027,55.404,3.5212)"
       d="m-26.264 29.716a9.3944 3.9396 0 1 1 -18.789 0 9.3944 3.9396 0 1 1 18.789 0z"
       style="color:#000000"
       id="path2983" />
    <path
       fill="#d0d0d0"
       stroke-width=".4"
       stroke="#979797"
       fill-rule="evenodd"
       d="m25.688 28.766l-0.063 1s4.324 3.599 9 4.203c2.338 0.301 4.754 0.702 6.75 1.187s3.588 1.12 4.125 1.656c0.31 0.311 0.451 0.574 0.5 0.782 0.049 0.207 0.038 0.355-0.094 0.562-0.264 0.416-1.08 0.968-2.468 1.406-2.778 0.878-7.721 1.438-14.563 1.438v1c6.896 0 11.864-0.528 14.844-1.469 1.49-0.47 2.525-1.015 3.031-1.812 0.253-0.399 0.357-0.889 0.25-1.344s-0.385-0.885-0.781-1.281c-0.878-0.878-2.537-1.407-4.594-1.906-2.057-0.5-4.516-0.915-6.875-1.219-4.719-0.609-9.062-4.203-9.062-4.203z"
       stroke-linejoin="round"
       id="path2411"
       style="" />
    <path
       fill="url(#radialGradient2460)"
       transform="matrix(1,0,0,1.3689,-1.9786,-19.021)"
       fill-rule="evenodd"
       d="m41.101 35.051a16.882 4.552 0 1 1 -33.765 0 16.882 4.552 0 1 1 33.765 0z"
       style="color:#000000"
       id="path2462" />
    <rect
       fill="url(#linearGradient2707)"
       x="17.472"
       y="30.704"
       width="9.0397"
       height="2.74"
       fill-rule="evenodd"
       style="color:#000000"
       id="rect2699" />
    <path
       fill="url(#linearGradient2251)"
       stroke="url(#linearGradient2979)"
       fill-rule="evenodd"
       d="m7.0809 1.6956h29.588c0.911 0 1.624 0.5835 1.667 1.4016l1.332 25.578c0.058 1.118-0.901 2.021-2.02 2.021h-31.546c-1.1188 0-2.0781-0.903-2.0199-2.021l1.3321-25.578c0.0402-0.7733 0.5475-1.4014 1.6667-1.4014z"
       style="color:#000000"
       id="rect2404" />
    <path
       fill="url(#linearGradient2681)"
       stroke-width=".5"
       stroke="#007900"
       fill-rule="evenodd"
       d="m8.4105 4.3058l-1.2422 22.045h27.651l-1.335-21.952-25.074-0.0932z"
       stroke-linejoin="round"
       id="path2377"
       style="" />
    <path
       fill="none"
       stroke-width=".99618"
       stroke-linecap="round"
       stroke="url(#linearGradient2689)"
       stroke-opacity=".24841"
       d="m6.1774 28.736h31.429"
       id="path2393"
       style="" />
    <path
       fill="none"
       stroke="url(#linearGradient2421)"
       stroke-opacity=".70064"
       d="m6.9146 2.7063l29.845-0.0378c0.284-0.0003 0.559 0.2373 0.582 0.6526l1.362 24.803c0.058 1.057-0.54 1.786-1.598 1.786h-30.524c-1.0589 0-1.5933-0.729-1.5361-1.786l1.3241-24.494c0.0387-0.7157 0.1664-0.9232 0.5446-0.9237z"
       style="color:#000000"
       id="path2397" />
    <path
       d="m8.7115 4.7464l-0.8025 17.871c11.045-2.401 11.421-10.493 25.154-13.147l-0.161-4.6576-24.19-0.066z"
       fill="url(#linearGradient2673)"
       fill-rule="evenodd"
       opacity=".53143"
       id="path2443"
       style="" />
    <path
       fill="url(#radialGradient2460)"
       transform="matrix(1.2644,0,0,1.2913,-6.2163,-4.0004)"
       fill-rule="evenodd"
       d="m41.101 35.051a16.882 4.552 0 1 1 -33.765 0 16.882 4.552 0 1 1 33.765 0z"
       style="color:#000000"
       id="path2657" />
    <path
       fill="url(#linearGradient2981)"
       stroke="url(#linearGradient2979)"
       fill-rule="evenodd"
       d="m6.4622 36.817h31.003c1.119 0 0.977 0.272 1.092 0.613l2.834 8.425c0.115 0.342 0.027 0.613-1.092 0.613h-36.672c-1.1187 0-1.2066-0.271-1.0917-0.613l2.8347-8.425c0.1148-0.341-0.0271-0.613 1.0922-0.613z"
       style="color:#000000"
       id="path2409" />
    <path
       d="m6.3917 38.829l-1.7678 5.127h5.4801l0.53-2.033h14.85l0.549 2.075h6.168l-1.679-5.169h-24.13z"
       fill="#7a7d77"
       fill-rule="evenodd"
       id="path2611"
       style="" />
    <path
       d="m11.076 42.276l-0.442 1.68h14.761l-0.442-1.768-13.877 0.088z"
       fill="#777874"
       fill-rule="evenodd"
       id="path2613"
       style="" />
    <path
       d="m37.593 38.829l1.679 5.038-5.48-0.088-1.503-4.861 5.304-0.089z"
       fill="#777a75"
       fill-rule="evenodd"
       style="color:#000000"
       id="path2619" />
    <path
       d="m37.593 38.299l1.679 5.038-5.48-0.088-1.503-4.862 5.304-0.088z"
       fill="url(#linearGradient2758)"
       fill-rule="evenodd"
       style="color:#000000"
       id="path2615" />
    <path
       d="m6.3917 38.21l-1.7678 5.127h5.4801l0.53-2.033h14.85l0.549 2.075h6.168l-1.679-5.169h-24.13z"
       fill="url(#linearGradient2758)"
       fill-rule="evenodd"
       id="path2617"
       style="" />
    <path
       d="m11.076 41.746l-0.442 1.679h14.761l-0.442-1.767-13.877 0.088z"
       fill="url(#linearGradient2758)"
       fill-rule="evenodd"
       style="color:#000000"
       id="path2621" />
    <path
       fill="none"
       stroke-width=".5"
       stroke="url(#linearGradient2741)"
       d="m6.1278 37.578h31.826l2.637 8.093h-37.261l2.7978-8.093z"
       style="color:#000000"
       stroke-linejoin="round"
       id="path2631" />
    <path
       fill="url(#linearGradient2717)"
       transform="matrix(1.3312,0,0,0.65845,-10.419,2.8539)"
       fill-rule="evenodd"
       d="m35.621 3.9384a0.83969 0.83969 0 1 1 -1.68 0 0.83969 0.83969 0 1 1 1.68 0z"
       style="color:#000000"
       id="path2709" />
    <path
       fill="url(#linearGradient2717)"
       transform="matrix(1.3312,0,0,0.65845,-10.306,4.9597)"
       fill-rule="evenodd"
       d="m35.621 3.9384a0.83969 0.83969 0 1 1 -1.68 0 0.83969 0.83969 0 1 1 1.68 0z"
       style="color:#000000"
       id="path2719" />
    <path
       fill="url(#linearGradient2717)"
       transform="matrix(1.3312,0,0,0.65845,-10.192,6.9597)"
       fill-rule="evenodd"
       d="m35.621 3.9384a0.83969 0.83969 0 1 1 -1.68 0 0.83969 0.83969 0 1 1 1.68 0z"
       style="color:#000000"
       id="path2723" />
    <path
       fill="url(#linearGradient2717)"
       transform="matrix(1.3312,0,0,0.65845,-10.079,8.9597)"
       fill-rule="evenodd"
       d="m35.621 3.9384a0.83969 0.83969 0 1 1 -1.68 0 0.83969 0.83969 0 1 1 1.68 0z"
       style="color:#000000"
       id="path2727" />
    <path
       fill="url(#linearGradient2717)"
       transform="matrix(1.3312,0,0,0.65845,-9.9649,10.96)"
       fill-rule="evenodd"
       d="m35.621 3.9384a0.83969 0.83969 0 1 1 -1.68 0 0.83969 0.83969 0 1 1 1.68 0z"
       style="color:#000000"
       id="path2731" />
    <path
       transform="matrix(1,0,-0.09952841,1,0.78763625,0)"
       style="fill:#9ff77e;fill-opacity:1;filter:url(#filter9739)"
       d="m 11.79971,10.455406 c -0.0088,-0.02015 -0.01207,-0.274052 -0.0071,-0.5642338 l 0.0089,-0.527604 0.318844,-0.0082 0.318842,-0.0082 0,0.57241 0,0.5724108 -0.311693,0 c -0.22336,0 -0.316254,-0.01038 -0.327784,-0.03663 z m -1.140664,-0.406187 c 0.04218,-0.08818 0.04198,-0.1122078 -0.0017,-0.2034698 -0.07252,-0.151633 -0.06069,-0.15328 0.08187,-0.0114 l 0.128574,0.127956 -0.103682,0.09345 c -0.133434,0.120271 -0.164811,0.118318 -0.105095,-0.0065 z m 0.177752,0.04635 c 0,-0.0295 0.02169,-0.06936 0.04819,-0.08858 0.0424,-0.03074 0.04216,-0.04512 -0.002,-0.1197088 -0.09373,-0.158347 -0.02526,-0.166935 0.109393,-0.01372 l 0.07159,0.08146 -0.08477,0.0971 c -0.09498,0.108788 -0.142414,0.123262 -0.142414,0.04346 z M 9.3526769,9.9365662 c 0.025749,-0.05862 0.1110736,-0.07326 0.3803286,-0.06529 0.2294302,0.0068 0.2542794,0.01815 0.1713348,0.07828 -0.034262,0.02484 -0.097204,0.02951 -0.2043866,0.01517 -0.2060915,-0.02759 -0.2090943,-0.02762 -0.2936554,-0.0038 -0.058461,0.01645 -0.069358,0.0115 -0.053621,-0.02433 z m 3.7732491,-0.958677 0,-0.342825 0.14562,0 c 0.202442,0 0.303473,0.04744 0.347133,0.163018 0.06908,0.182869 -0.117289,0.382377 -0.316414,0.338716 -0.07141,-0.01566 -0.07823,-0.0084 -0.07823,0.08338 0,0.07032 -0.01474,0.100535 -0.04905,0.100535 -0.04088,0 -0.04905,-0.05714 -0.04905,-0.342826 z m 0.307626,0.05815 c 0.108284,-0.03597 0.141665,-0.150231 0.0713,-0.244054 -0.09426,-0.12568 -0.281283,-0.07885 -0.28037,0.0702 0.0012,0.189394 0.04715,0.227634 0.209074,0.173852 z m 10.974507,-0.05815 0,-0.342825 0.145029,0 c 0.215077,0 0.300672,0.03847 0.34466,0.154908 0.07245,0.191785 -0.03238,0.330762 -0.249494,0.330762 -0.140587,0 -0.14209,0.001 -0.14209,0.09999 0,0.06984 -0.01479,0.09999 -0.04905,0.09999 -0.04088,0 -0.04905,-0.05714 -0.04905,-0.342826 z m 0.378922,0.01449 c 0.05697,-0.07596 0.04085,-0.210104 -0.02997,-0.249462 -0.08395,-0.04665 -0.210081,-0.02357 -0.230235,0.04213 -0.03657,0.119231 -0.02097,0.189379 0.05207,0.234072 0.100819,0.06169 0.146181,0.05586 0.208136,-0.02674 z m -9.650099,-0.05851 c 0.147178,-0.277026 0.23477,-0.403188 0.3257,-0.469115 0.06892,-0.04997 0.06735,-0.04486 -0.07205,0.234933 -0.126388,0.253662 -0.309256,0.506749 -0.366151,0.506749 -0.01777,0 0.03286,-0.122655 0.112504,-0.272567 z m -5.7632457,0.192654 c -0.029102,-0.01661 -0.00246,-0.05517 0.093881,-0.135906 0.2916737,-0.244424 0.3768544,-0.414784 0.2247663,-0.449529 -0.032619,-0.0075 -0.1217449,0.01087 -0.1980571,0.04072 -0.1575268,0.06161 -0.1828788,0.05548 -0.1296716,-0.03137 0.1068842,-0.174474 0.4911883,-0.114505 0.4911883,0.07665 0,0.09578 -0.051319,0.173963 -0.2068386,0.315093 l -0.133797,0.121418 0.1893943,0 c 0.1369223,0 0.1856495,0.0099 0.1758773,0.03571 -0.015628,0.04129 -0.4419553,0.06419 -0.5067424,0.02722 z m 0.9726347,-0.07722 0,-0.09999 -0.196682,0 -0.1966817,0 0.095616,-0.16427 c 0.116832,-0.200722 0.319551,-0.38303 0.360907,-0.324571 0.01518,0.02146 0.02057,0.08559 0.01198,0.142513 -0.0086,0.05692 0.0054,0.156381 0.03101,0.221022 0.03904,0.09838 0.03952,0.126031 0.003,0.169731 -0.02403,0.02871 -0.04369,0.07546 -0.04369,0.10388 0,0.02842 -0.01471,0.05168 -0.0327,0.05168 -0.01799,0 -0.0327,-0.045 -0.0327,-0.09999 z m -8.28e-4,-0.353093 -8.28e-4,-0.161145 -0.11362,0.155804 c -0.06249,0.08569 -0.113619,0.163461 -0.113619,0.172818 0,0.0094 0.05151,0.01176 0.114457,0.0053 l 0.114456,-0.01168 -8.28e-4,-0.161145 z m 0.360557,0.402414 -0.114457,-0.04843 0.202664,-0.0089 c 0.170832,-0.0075 0.206013,-0.01813 0.223986,-0.0676 0.026,-0.07157 0.0012,-0.09329 -0.157161,-0.137495 -0.129591,-0.03618 -0.136706,-0.08686 -0.01219,-0.08686 0.104163,0 0.193563,-0.06528 0.178642,-0.130448 -0.01111,-0.0485 -0.04013,-0.05494 -0.237656,-0.05275 -0.223336,0.0025 -0.224455,0.0021 -0.150792,-0.04999 0.111192,-0.07866 0.33063,-0.0704 0.42347,0.01593 0.06239,0.05802 0.06905,0.08301 0.04376,0.16427 -0.01641,0.05273 -0.01776,0.134389 -0.003,0.181547 0.03638,0.116234 0.0083,0.178307 -0.10364,0.228864 -0.117554,0.05311 -0.151105,0.05218 -0.293623,-0.0081 z m 0.687962,0.01423 c -0.181948,-0.08043 -0.212248,-0.438883 -0.04914,-0.581373 0.09076,-0.07929 0.292314,-0.09256 0.393214,-0.02589 0.05845,0.03862 0.04987,0.04202 -0.108206,0.04285 -0.127119,6.98e-4 -0.188662,0.01574 -0.237089,0.05805 -0.09727,0.08497 -0.0801,0.110561 0.06292,0.0938 0.107295,-0.01257 0.142125,-0.003 0.212562,0.05856 0.110216,0.09629 0.111826,0.226102 0.004,0.320324 -0.08939,0.0781 -0.158764,0.08649 -0.278228,0.03368 z m 0.197137,-0.07884 c 0.08758,-0.04095 0.08513,-0.186739 -0.0038,-0.228334 -0.107935,-0.05046 -0.20229,-0.02262 -0.237482,0.07009 -0.02704,0.07125 -0.02085,0.09128 0.04194,0.135702 0.08498,0.06011 0.11239,0.06321 0.199379,0.02254 z m 0.400058,0.08298 c -0.09589,-0.02358 -0.163737,-0.07142 -0.135692,-0.09568 0.0063,-0.0054 0.0715,-2.93e-4 0.144892,0.01146 0.165595,0.02652 0.275331,-0.006 0.275331,-0.08154 0,-0.06343 -0.08937,-0.116201 -0.196787,-0.116201 -0.104144,0 -0.06226,-0.06003 0.06743,-0.09665 0.07827,-0.0221 0.116226,-0.05172 0.123482,-0.09637 0.01378,-0.08479 -0.09621,-0.120804 -0.266746,-0.08733 -0.150389,0.02952 -0.189709,0.01101 -0.101063,-0.04758 0.08048,-0.05319 0.309798,-0.0554 0.390635,-0.0038 0.05249,0.03353 0.06246,0.0782 0.0641,0.28723 0.0021,0.266368 -0.02027,0.308474 -0.17916,0.337313 -0.04496,0.0082 -0.128856,0.0033 -0.186426,-0.0109 z m 2.018921,0.007 c -0.08964,-0.02183 -0.123767,-0.09652 -0.12874,-0.281798 -0.0027,-0.101422 -0.01403,-0.121417 -0.06866,-0.121417 -0.03634,0 -0.0654,-0.01905 -0.0654,-0.04285 0,-0.02381 0.02907,-0.04285 0.0654,-0.04285 0.0436,0 0.0654,-0.01905 0.0654,-0.05714 0,-0.03174 0.0218,-0.05714 0.04905,-0.05714 0.02725,0 0.04905,0.02539 0.04905,0.05714 0,0.04651 0.0218,0.05714 0.117181,0.05714 0.147758,0 0.136498,0.06744 -0.01342,0.08037 -0.09865,0.0085 -0.103763,0.01493 -0.103763,0.130242 0,0.133468 0.04836,0.208008 0.144448,0.222648 0.03448,0.0053 0.06882,0.02562 0.0763,0.04526 0.01467,0.03848 -0.05551,0.04239 -0.186858,0.01039 z m 0.468734,-0.01584 c -0.117273,-0.04458 -0.189714,-0.118522 -0.08868,-0.09051 0.09264,0.02569 0.322175,0.0294 0.365669,0.0059 0.06872,-0.03711 0.0397,-0.06759 -0.08358,-0.08779 -0.164486,-0.02696 -0.303622,-0.09309 -0.303622,-0.144308 0,-0.07612 0.125098,-0.156395 0.243725,-0.156395 0.121309,0 0.279504,0.0511 0.279504,0.09029 0,0.02905 -0.0393,0.02867 -0.22183,-0.0022 -0.117912,-0.01992 -0.144982,-0.01565 -0.171086,0.02696 -0.03333,0.05441 0.01423,0.0849 0.132437,0.0849 0.253685,0 0.346442,0.215391 0.12217,0.283692 -0.125673,0.03827 -0.148519,0.03739 -0.274714,-0.01058 z m 1.265816,-0.03794 c -0.10869,-0.09495 -0.148729,-0.252336 -0.101512,-0.399016 0.04526,-0.140605 0.09979,-0.19947 0.206444,-0.222855 0.06977,-0.0153 0.106758,-0.0019 0.186016,0.06733 0.09028,0.07887 0.09893,0.103044 0.09893,0.276518 0,0.17201 -0.0091,0.198036 -0.09559,0.273601 -0.119054,0.104007 -0.179258,0.104912 -0.294286,0.0044 z m 0.271159,-0.09947 c 0.02967,-0.09673 0.02452,-0.294418 -0.0097,-0.37311 -0.02396,-0.05506 -0.04781,-0.0668 -0.113458,-0.05583 -0.121578,0.02031 -0.163222,0.08095 -0.160581,0.23387 0.0037,0.215175 0.03022,0.259354 0.15561,0.259354 0.08481,0 0.112736,-0.01401 0.128157,-0.06428 z m -0.16369,-0.178364 c -0.01133,-0.02579 -0.0049,-0.06058 0.01425,-0.07733 0.04983,-0.04353 0.144228,-0.0037 0.131213,0.0553 -0.0145,0.06576 -0.119285,0.08163 -0.145466,0.02203 z m 3.043506,0.308056 c -0.07566,-0.06609 -0.14511,-0.217525 -0.144234,-0.314472 3.71e-4,-0.04371 0.02888,-0.133666 0.06329,-0.199891 0.09637,-0.185454 0.283659,-0.195123 0.413975,-0.02137 0.03964,0.05285 0.04941,0.117861 0.03905,0.259964 -0.01191,0.163471 -0.02616,0.198764 -0.103734,0.25706 -0.106364,0.07993 -0.191476,0.08586 -0.268342,0.01871 z m 0.24828,-0.110126 c 0.05693,-0.130811 0.03921,-0.348857 -0.03351,-0.412388 -0.151452,-0.13231 -0.242396,-0.0457 -0.244338,0.232694 -0.0015,0.216001 0.204161,0.349014 0.27785,0.179694 z m -0.14139,-0.173327 c -0.01261,-0.01102 -0.02293,-0.0445 -0.02293,-0.0744 0,-0.04004 0.01939,-0.05196 0.07358,-0.04523 0.0481,0.006 0.07358,0.02878 0.07358,0.06588 0,0.05667 -0.08085,0.09165 -0.124227,0.05375 z m 0.521847,0.273646 c -0.277714,-0.190841 -0.08874,-0.765425 0.206357,-0.627453 0.119443,0.05585 0.164515,0.148329 0.164515,0.337567 0,0.162555 -0.01,0.19027 -0.09559,0.265046 -0.113276,0.09896 -0.161137,0.103279 -0.275282,0.02484 z m 0.252917,-0.100796 c 0.01092,-0.02485 0.01985,-0.114846 0.01985,-0.199982 0,-0.167244 -0.07281,-0.269066 -0.192398,-0.269066 -0.07372,0 -0.10086,0.07388 -0.101472,0.276209 -6e-4,0.204914 0.01979,0.238029 0.146711,0.238029 0.06782,0 0.114781,-0.01667 0.127309,-0.04519 z m -0.164451,-0.197454 c -0.01133,-0.02579 -0.0049,-0.06058 0.01425,-0.07733 0.04982,-0.04353 0.144228,-0.0037 0.131213,0.0553 -0.0145,0.06576 -0.119285,0.08163 -0.145465,0.02203 z m 0.632357,0.338861 c -0.01261,-0.01102 -0.02293,-0.0436 -0.02293,-0.07241 0,-0.0372 0.02435,-0.05238 0.08403,-0.05238 0.06834,0 0.08208,0.01195 0.07358,0.06399 -0.01034,0.06333 -0.0904,0.09948 -0.134676,0.0608 z m 0.566345,-0.01884 c -0.111063,-0.04881 -0.163123,-0.15074 -0.163549,-0.320211 -3.71e-4,-0.158454 0.08477,-0.312093 0.189031,-0.341002 0.0831,-0.02304 0.223467,0.02492 0.262404,0.08966 0.08937,0.148585 0.06838,0.472022 -0.03533,0.544492 -0.07538,0.05267 -0.170985,0.06292 -0.25256,0.02706 z m 0.236809,-0.205936 c 0.0151,-0.06285 0.01867,-0.156154 0.0079,-0.20734 -0.02096,-0.09987 -0.147993,-0.195175 -0.225521,-0.169184 -0.06072,0.02036 -0.09746,0.220178 -0.06996,0.380428 0.02174,0.126676 0.02306,0.127786 0.141019,0.119119 0.110007,-0.0081 0.121159,-0.01745 0.146527,-0.123023 z m -0.186576,-0.09741 c -0.03202,-0.04526 0.0191,-0.116854 0.08343,-0.116854 0.04423,0 0.06191,0.02039 0.06191,0.07142 0,0.05165 -0.01757,0.07142 -0.06347,0.07142 -0.03491,0 -0.07175,-0.0117 -0.08186,-0.02599 z m 0.559218,0.307892 c -0.208605,-0.105934 -0.189671,-0.581133 0.02601,-0.652771 0.275709,-0.09158 0.431471,0.242728 0.269301,0.577993 -0.04256,0.08798 -0.06819,0.106978 -0.143419,0.106264 -0.05038,-4.75e-4 -0.11873,-0.01464 -0.151891,-0.03148 z m 0.239403,-0.166403 c 0.09241,-0.150849 -0.01394,-0.429755 -0.163873,-0.429755 -0.132016,0 -0.170408,0.425253 -0.04559,0.504986 0.06569,0.04196 0.157975,0.0088 0.209464,-0.07523 z m -0.162765,-0.186921 c 0,-0.05165 0.01757,-0.07142 0.06347,-0.07142 0.07705,0 0.107079,0.03643 0.08029,0.09741 -0.0335,0.07626 -0.143767,0.05633 -0.143767,-0.02599 z m 0.643137,0.366633 c -0.04791,-0.04186 -0.02033,-0.123798 0.04167,-0.123798 0.08347,0 0.115604,0.04918 0.06614,0.101242 -0.04317,0.04545 -0.07419,0.05193 -0.107817,0.02256 z m 0.568579,-0.01455 c -0.17451,-0.0564 -0.242788,-0.284146 -0.149299,-0.498005 0.06688,-0.152982 0.171077,-0.203281 0.304946,-0.147204 0.12869,0.05391 0.17387,0.153529 0.161356,0.355788 -0.0151,0.244028 -0.130746,0.349614 -0.317003,0.289421 z m 0.206554,-0.14496 c 0.02535,-0.08264 0.02535,-0.274465 0,-0.35711 -0.01536,-0.05008 -0.0434,-0.06428 -0.126863,-0.06428 -0.127024,0 -0.146843,0.03277 -0.146843,0.242835 0,0.210062 0.01982,0.242835 0.146843,0.242835 0.08347,0 0.111501,-0.01421 0.126863,-0.06428 z m -0.152668,-0.15376 c -0.01261,-0.01102 -0.02293,-0.0445 -0.02293,-0.0744 0,-0.04003 0.01939,-0.05196 0.07358,-0.04523 0.0481,0.006 0.07358,0.02878 0.07358,0.06587 0,0.05667 -0.08085,0.09165 -0.124226,0.05376 z m 0.516733,0.268035 c -0.170138,-0.128185 -0.170122,-0.457426 2.7e-5,-0.58566 0.112454,-0.08475 0.16551,-0.08111 0.280369,0.01923 0.0865,0.07557 0.09559,0.101591 0.09559,0.273601 0,0.172011 -0.0091,0.198036 -0.09559,0.273602 -0.114859,0.100342 -0.167908,0.10398 -0.280396,0.01923 z m 0.212477,-0.07856 c 0.04931,-0.04308 0.0654,-0.09523 0.0654,-0.211929 0,-0.212523 -0.01955,-0.245172 -0.146843,-0.245172 -0.122079,0 -0.14658,0.04298 -0.14658,0.25712 0,0.25519 0.08225,0.327327 0.228019,0.199981 z m -0.119825,-0.216186 c -0.01082,-0.02462 -0.004,-0.05847 0.01518,-0.07522 0.05087,-0.04444 0.137347,-0.0054 0.137347,0.06196 0,0.07046 -0.122717,0.08113 -0.152527,0.01326 z m 1.767018,0.318994 c -0.149329,-0.0584 -0.170426,-0.105619 -0.03825,-0.08562 0.05935,0.009 0.12643,0.02128 0.149068,0.02734 0.05576,0.01492 0.204104,-0.03642 0.204104,-0.07064 0,-0.01514 -0.06819,-0.03646 -0.151527,-0.04738 -0.142511,-0.01867 -0.273597,-0.09243 -0.273597,-0.15395 0,-0.05929 0.146969,-0.143957 0.249891,-0.143957 0.116492,0 0.273338,0.05195 0.273338,0.09054 0,0.01333 -0.07726,0.01709 -0.171685,0.0084 -0.189816,-0.01755 -0.309109,0.0214 -0.220737,0.07208 0.02698,0.01547 0.08754,0.02833 0.134572,0.02857 0.09489,4.76e-4 0.25785,0.09858 0.25785,0.155212 0,0.111557 -0.249032,0.183576 -0.413023,0.119446 z m -4.904951,-0.372843 c -0.02536,-0.05773 0.01235,-0.101359 0.08761,-0.101359 0.0459,0 0.06347,0.01977 0.06347,0.07142 0,0.05274 -0.01737,0.07142 -0.06643,0.07142 -0.03654,0 -0.07463,-0.01867 -0.08465,-0.04149 z m 1.88428,-0.02994 c 0,-0.05165 0.01757,-0.07142 0.06347,-0.07142 0.07705,0 0.107079,0.03643 0.08029,0.09741 -0.0335,0.07626 -0.143766,0.05632 -0.143766,-0.02599 z m -8.973227,-0.51674 c -0.01088,-0.02476 -0.01978,-0.178962 -0.01978,-0.342661 l 0,-0.297636 0.165659,0 c 0.20662,0 0.275496,0.03139 0.321429,0.146504 0.05124,0.128408 0.04658,0.15253 -0.04852,0.251267 -0.06796,0.07056 -0.109888,0.0879 -0.212562,0.0879 -0.11974,0 -0.1279,0.0054 -0.1279,0.08402 0,0.09504 -0.04842,0.138691 -0.07833,0.07061 z m 0.366256,-0.390221 c 0.0089,-0.121642 0.0014,-0.139021 -0.07345,-0.168803 -0.111594,-0.04442 -0.214482,0.03247 -0.214482,0.160276 0,0.115279 0.05637,0.16314 0.179699,0.15256 0.09242,-0.0079 0.09886,-0.0165 0.108229,-0.144033 z m 1.613513,0.05814 c 0.129524,-0.260891 0.357818,-0.572199 0.378967,-0.516771 0.03,0.07863 -0.404525,0.779928 -0.483243,0.779928 -0.01451,0 0.03242,-0.118421 0.104276,-0.263157 z m -5.7325216,0.09889 c 0.035691,-0.04321 0.1261529,-0.129988 0.2010274,-0.192839 0.1772245,-0.148767 0.2077622,-0.19941 0.1636587,-0.271404 -0.044804,-0.07314 -0.1505465,-0.07254 -0.2898293,0.0016 -0.1315815,0.07008 -0.1636769,0.05474 -0.090257,-0.04315 0.1331675,-0.177553 0.478192,-0.103673 0.478192,0.102396 0,0.06359 -0.042938,0.125039 -0.1682528,0.240794 l -0.168252,0.155419 0.1110239,3.8e-4 c 0.1415248,4.76e-4 0.2581835,0.02765 0.2581835,0.06008 0,0.01388 -0.1260869,0.02523 -0.2801923,0.02523 l -0.2801929,0 0.064891,-0.07856 z m 0.6508276,0.03365 c -0.049462,-0.02344 -0.08993,-0.04844 -0.08993,-0.05556 0,-0.0071 0.085036,-0.0052 0.188969,0.0043 0.150634,0.01376 0.197814,0.0079 0.232571,-0.02864 0.06589,-0.06936 0.0217,-0.125869 -0.12554,-0.160505 -0.158934,-0.03739 -0.169548,-0.07249 -0.02933,-0.09699 0.194377,-0.03396 0.254634,-0.136487 0.113286,-0.192749 -0.05402,-0.0215 -0.124691,-0.02227 -0.230747,-0.0025 -0.1481735,0.02761 -0.1511758,0.02684 -0.0975,-0.02497 0.08099,-0.07819 0.247537,-0.09716 0.369443,-0.04209 l 0.102078,0.04612 0,0.254766 c 0,0.230881 -0.0068,0.258935 -0.07268,0.299239 -0.09075,0.05553 -0.242927,0.05534 -0.360619,-4.44e-4 z m 0.593833,-0.0086 -0.07563,-0.0535 0.166311,0.01396 c 0.138759,0.01165 0.177777,0.0039 0.235511,-0.04649 0.09278,-0.08105 0.08895,-0.128116 -0.0087,-0.10671 -0.101545,0.02226 -0.274594,-0.03138 -0.315234,-0.09772 -0.05479,-0.08944 -0.03542,-0.198477 0.04826,-0.271575 0.102886,-0.08988 0.244899,-0.09165 0.338914,-0.0042 0.143705,0.133634 0.121767,0.479944 -0.03654,0.576812 -0.09618,0.05885 -0.261803,0.0539 -0.352916,-0.01056 z m 0.344008,-0.305653 c 0.104667,-0.09144 0.03512,-0.240795 -0.11212,-0.240795 -0.09604,0 -0.16351,0.06322 -0.16351,0.15321 0,0.05917 0.09048,0.132478 0.16351,0.132478 0.0334,0 0.08386,-0.0202 0.11212,-0.04489 z m 0.60732,0.275825 c 0,-0.08773 -7.71e-4,-0.08809 -0.17986,-0.08809 -0.12225,0 -0.179762,-0.01144 -0.179553,-0.03571 8.85e-4,-0.101821 0.345352,-0.507096 0.431025,-0.507096 0.01457,0 0.02649,0.09385 0.02649,0.208553 0,0.114703 0.01418,0.220938 0.03151,0.236077 0.03759,0.03284 -0.03859,0.247846 -0.09348,0.263829 -0.02117,0.0062 -0.03614,-0.02596 -0.03614,-0.07756 z m 0,-0.32276 c 0,-0.166615 -0.02294,-0.160658 -0.161133,0.04183 l -0.07311,0.107133 0.117124,0 0.117123,0 0,-0.148966 z m 0.379271,0.361947 c -0.07437,-0.06497 -0.123727,-0.255646 -0.09764,-0.377151 0.01265,-0.05891 0.06491,-0.14297 0.117365,-0.188797 0.08052,-0.07034 0.112209,-0.08011 0.213412,-0.06576 0.06537,0.0093 0.138825,0.0343 0.163238,0.05563 0.03738,0.03266 0.01794,0.03845 -0.123216,0.03667 -0.140865,-0.0018 -0.17821,0.0093 -0.234074,0.06931 l -0.06647,0.07142 0.170968,0.01537 c 0.115718,0.0104 0.185675,0.03294 0.216477,0.06974 0.0669,0.07993 0.05673,0.233629 -0.0199,0.30057 -0.07894,0.06896 -0.267848,0.07618 -0.340169,0.013 z m 0.255741,-0.05891 c 0.08007,-0.02684 0.06929,-0.203006 -0.01368,-0.223569 -0.03597,-0.0089 -0.09351,-0.02314 -0.127854,-0.0316 -0.08302,-0.02046 -0.16311,0.164338 -0.100009,0.230762 0.04113,0.0433 0.151823,0.05448 0.241539,0.02441 z m 1.669416,-0.111219 c -0.0197,-0.183652 -0.03178,-0.214266 -0.08455,-0.214266 -0.08151,0 -0.0789,-0.04848 0.0038,-0.07142 0.03597,-0.01 0.0654,-0.04298 0.0654,-0.07335 0,-0.03037 0.02207,-0.05521 0.04905,-0.05521 0.02725,0 0.04905,0.02539 0.04905,0.05714 0,0.03728 0.0218,0.05714 0.06273,0.05714 0.08544,0 0.166184,0.02925 0.166184,0.06019 0,0.01403 -0.05151,0.02551 -0.114457,0.02551 l -0.114456,0 0,0.140803 c 0,0.15165 0.05678,0.230592 0.165845,0.230592 0.03469,0 0.06307,0.01286 0.06307,0.02857 0,0.01571 -0.06497,0.02857 -0.144368,0.02857 l -0.144368,0 -0.02298,-0.214266 z m 0.548807,0.179398 c -0.115781,-0.04878 -0.08611,-0.08183 0.05568,-0.06202 0.137615,0.01922 0.295861,-0.0031 0.295861,-0.04181 0,-0.01284 -0.08884,-0.04492 -0.197419,-0.07129 -0.217786,-0.0529 -0.260368,-0.09931 -0.184241,-0.200809 0.06248,-0.0833 0.196164,-0.108442 0.345395,-0.06495 0.182437,0.05317 0.154706,0.09067 -0.06682,0.09036 -0.23844,-3.17e-4 -0.294806,0.05395 -0.08622,0.08304 0.163308,0.02277 0.287406,0.08576 0.287406,0.145886 0,0.02321 -0.02943,0.06791 -0.0654,0.09933 -0.07267,0.06349 -0.260574,0.07438 -0.384247,0.02227 z m 1.273263,-0.0363 c -0.08674,-0.09634 -0.114381,-0.24671 -0.07114,-0.387011 0.05757,-0.186767 0.18205,-0.263198 0.341571,-0.209721 0.149944,0.05027 0.201632,0.405905 0.08358,0.575057 -0.08448,0.121039 -0.255137,0.131488 -0.354012,0.02167 z m 0.30034,-0.07881 c 0.02576,-0.08396 0.02583,-0.248586 1.55e-4,-0.360681 -0.01786,-0.07807 -0.0338,-0.08928 -0.126983,-0.08928 -0.123503,0 -0.145729,0.04192 -0.146438,0.27621 -6e-4,0.204791 0.01982,0.238029 0.146397,0.238029 0.08347,0 0.1115,-0.01421 0.126861,-0.06428 z m -0.152668,-0.15376 c -0.01261,-0.01102 -0.02293,-0.0436 -0.02293,-0.07241 0,-0.0372 0.02435,-0.05238 0.08403,-0.05238 0.06834,0 0.08208,0.01195 0.07358,0.06399 -0.01034,0.06333 -0.0904,0.09948 -0.134676,0.0608 z m 2.98887,0.229426 c -0.09224,-0.102441 -0.116779,-0.24685 -0.06788,-0.399425 0.0603,-0.188141 0.225389,-0.266189 0.365854,-0.172958 0.175837,0.116708 0.158124,0.567666 -0.02471,0.628957 -0.109078,0.03657 -0.207808,0.01613 -0.273268,-0.05657 z m 0.289933,-0.06665 c 0.06038,-0.09857 0.04159,-0.337945 -0.03155,-0.401841 -0.09664,-0.08443 -0.160689,-0.07001 -0.217596,0.04897 -0.05505,0.115104 -0.04394,0.296514 0.02245,0.366394 0.05646,0.05944 0.186763,0.05166 0.226698,-0.01353 z m -0.140557,-0.163768 c -0.01199,-0.01047 -0.0218,-0.04261 -0.0218,-0.07142 0,-0.06599 0.124507,-0.07139 0.152949,-0.0066 0.0268,0.06101 -0.07875,0.123837 -0.131148,0.07806 z m 0.488413,0.238824 c -0.201045,-0.175636 -0.08886,-0.619741 0.15655,-0.619741 0.04297,0 0.112873,0.02458 0.155334,0.05461 0.06947,0.04914 0.0772,0.07746 0.0772,0.282688 0,0.184192 -0.01198,0.239646 -0.0623,0.288212 -0.08307,0.08019 -0.231385,0.07757 -0.326789,-0.0058 z m 0.28672,-0.08408 c 0.02576,-0.08396 0.02583,-0.248586 1.55e-4,-0.360681 -0.01786,-0.07807 -0.0338,-0.08928 -0.126984,-0.08928 -0.121425,0 -0.145992,0.04327 -0.145992,0.25712 0,0.213987 0.02454,0.257119 0.146265,0.257119 0.08314,0 0.111201,-0.01425 0.126547,-0.06428 z m -0.152667,-0.15376 c -0.01261,-0.01102 -0.02293,-0.0436 -0.02293,-0.07241 0,-0.0372 0.02435,-0.05238 0.08403,-0.05238 0.06834,0 0.08208,0.01195 0.07358,0.06399 -0.01034,0.06333 -0.0904,0.09948 -0.134676,0.0608 z m 0.604304,0.239466 c 0.0069,-0.04219 0.03292,-0.06428 0.07585,-0.06428 0.04293,0 0.069,0.02209 0.07585,0.06428 0.0086,0.05273 -0.0051,0.06428 -0.07585,0.06428 -0.0708,0 -0.08443,-0.01155 -0.07585,-0.06428 z m 0.495996,-0.0098 c -0.03055,-0.04073 -0.06197,-0.141803 -0.06983,-0.224609 -0.02664,-0.280651 0.145383,-0.454793 0.350514,-0.354829 0.171807,0.08372 0.213821,0.468674 0.06531,0.598414 -0.09566,0.08357 -0.27652,0.07365 -0.345993,-0.01898 z m 0.324189,-0.140212 c 0.05227,-0.217533 -0.03001,-0.385679 -0.188733,-0.385679 -0.06668,0 -0.08047,0.01783 -0.09948,0.12856 -0.01214,0.07071 -0.01201,0.187134 2.26e-4,0.258725 0.02219,0.129261 0.02317,0.130104 0.141412,0.121417 0.110008,-0.0081 0.121159,-0.01744 0.146527,-0.123023 z m -0.16864,-0.09757 c -0.06381,-0.03526 -0.01968,-0.116694 0.06324,-0.116694 0.05192,0 0.06615,0.01516 0.05825,0.06204 -0.012,0.07125 -0.0558,0.09095 -0.121496,0.05465 z m 0.466352,0.233274 c -0.08902,-0.114677 -0.08471,-0.403611 0.0076,-0.512144 0.09088,-0.106795 0.209288,-0.116806 0.327843,-0.02772 0.08643,0.06495 0.09365,0.08577 0.09384,0.270592 1.56e-4,0.172712 -0.01069,0.210375 -0.07907,0.274033 -0.110754,0.103099 -0.268188,0.100959 -0.350259,-0.0048 z m 0.309833,-0.07991 c 0.04687,-0.08987 0.04797,-0.194525 0.0035,-0.334339 -0.03979,-0.125164 -0.122239,-0.141685 -0.231357,-0.04636 -0.05993,0.05235 -0.06718,0.08375 -0.05236,0.22661 0.02115,0.203767 0.03655,0.226853 0.151306,0.226853 0.0657,0 0.101455,-0.02019 0.128877,-0.07277 z m -0.136459,-0.146261 c -0.04791,-0.04186 -0.02033,-0.123798 0.04167,-0.123798 0.08347,0 0.115605,0.04918 0.06614,0.101242 -0.04317,0.04545 -0.07419,0.05193 -0.107817,0.02256 z m 0.605091,0.242741 c 0.0072,-0.04438 0.0326,-0.06657 0.0762,-0.06657 0.09739,0 0.08766,0.111521 -0.01079,0.123704 -0.0634,0.0078 -0.07438,-0.0017 -0.0654,-0.05714 z m 0.488203,-0.01233 c -0.09042,-0.100417 -0.117911,-0.250369 -0.07099,-0.387173 0.07916,-0.230816 0.259249,-0.290928 0.408223,-0.13626 0.109687,0.113881 0.119327,0.362034 0.01962,0.504905 -0.08564,0.122707 -0.25512,0.131507 -0.356845,0.01853 z m 0.303174,-0.07567 c 0.03678,-0.119909 0.02089,-0.322619 -0.0303,-0.386464 -0.05886,-0.07341 -0.194478,-0.08451 -0.223561,-0.01831 -0.01092,0.02486 -0.01985,0.120223 -0.01985,0.21193 0,0.22512 0.01827,0.257119 0.146843,0.257119 0.08347,0 0.111501,-0.01421 0.126863,-0.06428 z m -0.153798,-0.154748 c -0.01199,-0.01047 -0.0218,-0.04261 -0.0218,-0.07142 0,-0.03682 0.02428,-0.05238 0.08176,-0.05238 0.09406,0 0.117107,0.09631 0.03003,0.125503 -0.06405,0.02147 -0.06344,0.02148 -0.08998,-0.0017 z m 0.485926,0.248416 c -0.03209,-0.03097 -0.06937,-0.109022 -0.08286,-0.173439 -0.05086,-0.24297 0.08009,-0.455894 0.280367,-0.455894 0.0923,0 0.111657,0.01409 0.157809,0.114854 0.0764,0.166812 0.06921,0.401809 -0.01517,0.495523 -0.08422,0.09354 -0.253138,0.102949 -0.340147,0.01896 z m 0.289207,-0.09367 c 0.01085,-0.03535 0.01992,-0.127547 0.02016,-0.204874 5.43e-4,-0.157809 -0.06384,-0.245084 -0.180668,-0.245084 -0.08425,0 -0.112308,0.06424 -0.112308,0.257119 0,0.213987 0.02454,0.257119 0.146264,0.257119 0.08314,0 0.111202,-0.01425 0.126548,-0.06428 z m -0.152668,-0.15376 c -0.01261,-0.01102 -0.02293,-0.0436 -0.02293,-0.07241 0,-0.0372 0.02435,-0.05238 0.08403,-0.05238 0.06834,0 0.08208,0.01195 0.07358,0.06399 -0.01034,0.06333 -0.0904,0.09947 -0.134676,0.0608 z m 1.025776,0.253751 c 0.02363,-0.0275 0.124302,-0.123917 0.223719,-0.214266 l 0.180757,-0.164271 -0.203363,0 c -0.166576,0 -0.203362,-0.0085 -0.203362,-0.04679 0,-0.04104 0.0311,-0.04433 0.252757,-0.02678 0.139016,0.01101 0.259598,0.02599 0.267959,0.03329 0.0084,0.0073 -0.0784,0.09579 -0.192806,0.196629 l -0.208007,0.183348 0.190904,0.0087 c 0.116027,0.0053 0.196193,0.02272 0.204388,0.04442 0.01009,0.02674 -0.05806,0.03571 -0.27121,0.03571 -0.265702,0 -0.281829,-0.0033 -0.241736,-0.04999 z m 0.651788,-0.0071 c -0.07462,-0.05099 -0.07604,-0.05582 -0.01635,-0.05526 0.03597,3.17e-4 0.128438,0.01126 0.205479,0.02427 0.119484,0.02018 0.144828,0.0159 0.172405,-0.02911 0.02712,-0.04427 0.01773,-0.05565 -0.05832,-0.07062 -0.279541,-0.05505 -0.335914,-0.07437 -0.335914,-0.115092 0,-0.144715 0.18921,-0.230907 0.383011,-0.174476 0.18794,0.05473 0.163015,0.09235 -0.06097,0.09203 -0.249617,-3.49e-4 -0.299176,0.05778 -0.07437,0.08723 0.145217,0.01902 0.275557,0.09249 0.275557,0.155319 0,0.01572 -0.02943,0.05428 -0.0654,0.08571 -0.08743,0.07638 -0.313347,0.07638 -0.425124,0 z m 0.588633,-0.285688 c 0,-0.285688 0.0082,-0.342826 0.04905,-0.342826 0.03489,0 0.04905,0.03094 0.04903,0.107133 l -2e-5,0.107133 0.159647,-0.0097 c 0.136634,-0.0083 0.167279,-1.43e-4 0.212582,0.05635 0.07227,0.09014 0.07533,0.424704 0.0039,0.424704 -0.0386,0 -0.04905,-0.03978 -0.04905,-0.186617 0,-0.166507 -0.0078,-0.189138 -0.07236,-0.210003 -0.168653,-0.0545 -0.254659,0.03665 -0.254659,0.269921 0,0.09358 -0.01282,0.126699 -0.04905,0.126699 -0.04088,0 -0.04905,-0.05714 -0.04905,-0.342825 z m -5.387627,-0.02087 c -0.02248,-0.0069 -0.04088,-0.0371 -0.04088,-0.06721 0,-0.03936 0.02299,-0.05476 0.08175,-0.05476 0.05841,0 0.08176,0.01544 0.08176,0.05408 0,0.05764 -0.05548,0.08835 -0.122632,0.06789 z m 1.876479,8.24e-4 c -0.03719,-0.03249 -0.02165,-0.116346 0.02442,-0.131788 0.04478,-0.01501 0.118441,0.02904 0.118441,0.07084 0,0.0317 -0.118481,0.08224 -0.142859,0.06095 z m -11.531696,-1.065563 0,-0.342826 0.181346,0 c 0.148939,0 0.195692,0.01253 0.261615,0.07012 0.04415,0.03857 0.08027,0.101114 0.08027,0.138992 0,0.09288 -0.118938,0.219326 -0.20676,0.219807 -0.175428,9.51e-4 -0.218364,0.02963 -0.218364,0.145786 0,0.07957 -0.01387,0.110943 -0.04905,0.110943 -0.04088,0 -0.04905,-0.05714 -0.04905,-0.342825 z m 0.39074,-0.04449 c 0.03583,-0.0305 0.03963,-0.05956 0.01559,-0.119333 -0.02615,-0.065 -0.05629,-0.08189 -0.170003,-0.09522 l -0.138222,-0.01621 0,0.155086 0,0.155087 0.122632,-0.01955 c 0.06745,-0.01075 0.143949,-0.03769 0.170002,-0.05987 z m 0.304011,0.351603 c 0.0074,-0.01964 0.04542,-0.03982 0.08448,-0.04484 0.06681,-0.0086 0.07102,-0.02426 0.07102,-0.264262 0,-0.140322 -0.0119,-0.255132 -0.02645,-0.255132 -0.01455,0 -0.05502,-0.01887 -0.08993,-0.04194 -0.05803,-0.03834 -0.04593,-0.04202 0.140908,-0.04285 0.160337,-7.29e-4 0.204386,0.0083 0.204386,0.04195 0,0.02381 -0.02907,0.04285 -0.0654,0.04285 -0.06056,0 -0.0654,0.01905 -0.0654,0.25712 0,0.238073 0.0048,0.257119 0.0654,0.257119 0.03634,0 0.0654,0.01905 0.0654,0.04285 0,0.03339 -0.04391,0.04285 -0.198935,0.04285 -0.144529,0 -0.195255,-0.0098 -0.185475,-0.03571 z m 0.58062,-0.316277 0,-0.351988 0.16512,0.0185 c 0.217589,0.02439 0.29708,0.09514 0.31772,0.282793 0.02857,0.259732 -0.107636,0.402678 -0.383684,0.402678 l -0.09916,0 0,-0.351988 z m 0.317889,0.198584 c 0.07487,-0.06274 0.08862,-0.108862 0.07972,-0.267327 -0.0056,-0.09885 -0.08193,-0.160221 -0.242269,-0.19466 l -0.08993,-0.01932 0,0.289329 0,0.289329 0.08993,-0.01825 c 0.04946,-0.01004 0.12261,-0.04564 0.162554,-0.07911 z m 1.120992,-0.146568 0,-0.299973 -0.09811,0 c -0.0654,0 -0.09811,-0.01428 -0.09811,-0.04285 0,-0.03456 0.05117,-0.04285 0.26434,-0.04285 0.196828,0 0.260913,0.0091 0.250922,0.03571 -0.0074,0.01964 -0.06011,0.03974 -0.117183,0.04466 l -0.103762,0.009 0,0.298162 c 0,0.245988 -0.0086,0.298163 -0.04905,0.298163 -0.04049,0 -0.04905,-0.05238 -0.04905,-0.299973 z m 0.621336,0 0,-0.299973 -0.09811,0 c -0.0654,0 -0.0981,-0.01428 -0.0981,-0.04285 0,-0.03456 0.05117,-0.04285 0.26434,-0.04285 0.196827,0 0.260913,0.0091 0.250921,0.03571 -0.0074,0.01964 -0.06011,0.03974 -0.117181,0.04466 l -0.103763,0.009 0,0.298162 c 0,0.245988 -0.0086,0.298163 -0.04905,0.298163 -0.04049,0 -0.04905,-0.05238 -0.04905,-0.299973 z m 0.654036,0.203573 c 0,-0.12579 -0.06753,-0.289388 -0.19098,-0.46266 -0.05468,-0.07675 -0.09213,-0.145908 -0.08322,-0.153692 0.0089,-0.0078 0.08564,0.05465 0.170507,0.138746 l 0.154307,0.152899 0.09495,-0.119696 c 0.05222,-0.06583 0.12425,-0.133394 0.160061,-0.150138 0.05628,-0.02631 0.0524,-0.01154 -0.02854,0.108841 -0.158933,0.236379 -0.189207,0.302058 -0.20487,0.444472 -0.01719,0.156318 -0.07222,0.187731 -0.07222,0.04123 z m 6.900087,-0.203573 0,-0.299973 -0.114457,0 c -0.07994,0 -0.114456,-0.01292 -0.114456,-0.04285 0,-0.03456 0.05117,-0.04285 0.264339,-0.04285 0.196828,0 0.260913,0.0091 0.250921,0.03571 -0.0074,0.01964 -0.06011,0.03974 -0.117181,0.04466 l -0.103762,0.009 0,0.298162 c 0,0.179729 -0.01299,0.298163 -0.0327,0.298163 -0.01972,0 -0.0327,-0.119037 -0.0327,-0.299973 z m 0.457825,0.257119 c 0,-0.02666 0.03089,-0.04285 0.08176,-0.04285 0.0811,0 0.08176,-0.002 0.08176,-0.255132 0,-0.240007 -0.0042,-0.255674 -0.07102,-0.264262 -0.03906,-0.005 -0.07708,-0.0252 -0.08448,-0.04484 -0.0098,-0.02594 0.04095,-0.03571 0.185475,-0.03571 0.15503,0 0.198935,0.0095 0.198935,0.04285 0,0.02381 -0.02907,0.04285 -0.0654,0.04285 -0.06056,0 -0.0654,0.01905 -0.0654,0.25712 0,0.238073 0.0048,0.257119 0.0654,0.257119 0.03634,0 0.0654,0.01905 0.0654,0.04285 0,0.03333 -0.0436,0.04285 -0.19621,0.04285 -0.152609,0 -0.196212,-0.0095 -0.196212,-0.04285 z m 0.555932,-0.18171 c 0,-0.294297 0.0324,-0.494184 0.07819,-0.482401 0.01995,0.0051 0.07505,0.07835 0.12246,0.162707 l 0.08619,0.153375 0.02235,-0.08891 c 0.02381,-0.0947 0.133309,-0.234433 0.183713,-0.234433 0.01702,0 0.03033,0.156714 0.03033,0.35711 0,0.298385 -0.0081,0.35711 -0.04905,0.35711 -0.03911,0 -0.04969,-0.04487 -0.05219,-0.221408 l -0.0031,-0.221408 -0.05409,0.106987 c -0.02975,0.05884 -0.06482,0.107053 -0.07795,0.107133 -0.01312,8.6e-5 -0.05727,-0.05449 -0.0981,-0.121272 l -0.07425,-0.121417 -0.0095,0.235692 c -0.0074,0.183767 -0.02001,0.235693 -0.05723,0.235693 -0.03779,0 -0.04773,-0.04676 -0.04773,-0.224563 z m 0.654037,-0.118262 0,-0.342826 0.245263,0 c 0.196211,0 0.245264,0.0086 0.245264,0.04285 0,0.03333 -0.0436,0.04285 -0.196211,0.04285 l -0.196211,0 0,0.09999 0,0.09999 0.196211,0 c 0.152608,0 0.196211,0.0095 0.196211,0.04285 0,0.03333 -0.0436,0.04285 -0.196211,0.04285 l -0.196211,0 0,0.114276 0,0.114275 0.138983,3.8e-4 c 0.166755,4.76e-4 0.286141,0.02553 0.286141,0.06008 0,0.01388 -0.117727,0.02524 -0.261615,0.02524 l -0.261614,0 0,-0.342826 z m 1.419919,0.31083 c -0.163324,-0.07092 -0.230216,-0.338463 -0.127859,-0.511384 0.06126,-0.103483 0.14104,-0.142272 0.292638,-0.142272 0.0968,0 0.123176,0.01323 0.150222,0.07538 0.04217,0.0969 0.02111,0.113242 -0.07229,0.05609 -0.104552,-0.06398 -0.211029,-0.05701 -0.27095,0.01773 -0.09775,0.121926 -0.04446,0.401977 0.08323,0.437383 0.03234,0.009 0.104757,-0.0045 0.160918,-0.02982 l 0.102112,-0.04613 -0.01055,0.08037 c -0.0091,0.06967 -0.02579,0.08116 -0.125003,0.08628 -0.06295,0.0033 -0.145063,-0.0074 -0.18247,-0.02362 z m 0.444085,-0.325115 c 0,-0.19641 0.01215,-0.35711 0.027,-0.35711 0.04924,0 0.164014,0.127338 0.186682,0.207124 0.01228,0.04321 0.03384,0.07856 0.04793,0.07856 0.01409,0 0.03565,-0.03535 0.04793,-0.07856 0.02267,-0.07979 0.137438,-0.207124 0.186682,-0.207124 0.01485,0 0.027,0.1607 0.027,0.35711 0,0.298385 -0.0081,0.35711 -0.04905,0.35711 -0.03952,0 -0.04933,-0.0458 -0.0505,-0.235693 l -0.0015,-0.235692 -0.06365,0.105282 c -0.09159,0.151484 -0.118644,0.153887 -0.190679,0.01694 l -0.06428,-0.12222 -0.0028,0.235693 c -0.0022,0.189389 -0.01239,0.235692 -0.05181,0.235692 -0.04099,0 -0.04905,-0.05872 -0.04905,-0.35711 z m 0.628503,0.0072 0.0092,-0.349909 0.1284,0.0097 c 0.201054,0.0152 0.279773,0.05336 0.331007,0.160489 0.140743,0.294273 -0.02243,0.529622 -0.367188,0.529622 l -0.110583,0 0.0092,-0.349909 z m 0.360486,0.211561 c 0.04174,-0.03646 0.06978,-0.243451 0.04477,-0.330487 -0.02194,-0.07636 -0.077,-0.111207 -0.224391,-0.141987 l -0.08993,-0.01878 0,0.275685 0,0.275686 0.11981,-0.01699 c 0.0659,-0.0093 0.133277,-0.02875 0.149739,-0.04313 z M 11.883256,5.8680952 c 0,-0.09197 -0.0094,-0.246243 -0.02101,-0.342825 l -0.02101,-0.175604 0.198496,0 c 0.175489,0 0.206352,0.0087 0.266274,0.07527 0.08904,0.09889 0.08956,0.264915 0.0011,0.347871 -0.04935,0.04627 -0.104601,0.06252 -0.212563,0.06252 -0.144924,0 -0.145884,6.66e-4 -0.145884,0.09999 0,0.055 -0.01472,0.09999 -0.0327,0.09999 -0.01808,0 -0.0327,-0.07479 -0.0327,-0.167223 z m 0.341034,-0.13479 c 0.06434,-0.05621 0.06702,-0.222464 0.0043,-0.267929 -0.02589,-0.01877 -0.08843,-0.02999 -0.138983,-0.02493 -0.08357,0.0084 -0.09285,0.02078 -0.102304,0.13673 -0.0078,0.09603 0.0038,0.1366 0.04713,0.164271 0.07603,0.04857 0.127455,0.04636 0.189847,-0.0081 z m 0.388192,0.099 c -0.09564,-0.02416 -0.163981,-0.0725 -0.135692,-0.09598 0.0063,-0.0052 0.09177,0.0017 0.189934,0.0154 0.131366,0.01833 0.18519,0.01569 0.203886,-0.01002 0.04407,-0.0606 0.02963,-0.0747 -0.09623,-0.09398 -0.246323,-0.03773 -0.339184,-0.148635 -0.209987,-0.25078 0.08567,-0.06773 0.30647,-0.0616 0.402576,0.01118 l 0.0772,0.05846 -0.147159,-0.0177 c -0.08094,-0.0097 -0.171167,-0.02357 -0.200513,-0.03075 -0.06363,-0.01556 -0.113353,0.07472 -0.0577,0.104766 0.02107,0.01138 0.09324,0.02836 0.160369,0.03774 0.06713,0.0094 0.140321,0.03628 0.162651,0.05979 0.06566,0.06912 0.0138,0.176713 -0.102193,0.212038 -0.116451,0.03547 -0.106055,0.03547 -0.247146,-1.79e-4 z m -1.954986,-0.159674 c 0.04576,-0.09567 0.04557,-0.116419 -0.0021,-0.221408 l -0.05254,-0.115843 0.13125,0.111185 0.131249,0.111184 -0.104234,0.109709 c -0.131693,0.13861 -0.16837,0.14044 -0.103675,0.0052 z m 0.179302,0.08501 c 0,-0.01864 0.01741,-0.06727 0.03869,-0.108068 0.03016,-0.05783 0.0295,-0.09638 -0.003,-0.174896 -0.05915,-0.14291 -0.02759,-0.146087 0.09609,-0.0097 l 0.106953,0.117973 -0.119361,0.104277 c -0.06565,0.05735 -0.119362,0.08903 -0.119362,0.07039 z M 9.3661077,5.5344252 c 0.035266,-0.03712 0.096484,-0.04427 0.3156543,-0.03684 0.368891,0.0125 0.331175,0.06416 -0.05448,0.07462 -0.2773411,0.0075 -0.3009675,0.0041 -0.2611747,-0.03778 z"
       id="path9717"
       inkscape:connector-curvature="0" />
    <path
       inkscape:connector-curvature="0"
       id="path9715"
       d="m 11.546737,10.455406 c -0.007,-0.02015 0.01521,-0.274052 0.04909,-0.5642338 l 0.06142,-0.527604 0.319658,-0.0082 0.319658,-0.0082 -0.05697,0.57241 -0.05697,0.5724108 -0.311693,0 c -0.22336,0 -0.315221,-0.01038 -0.324138,-0.03663 z m -1.100239,-0.406187 c 0.05096,-0.08818 0.05318,-0.1122078 0.01858,-0.2034698 -0.0574,-0.151633 -0.04541,-0.15328 0.08301,-0.0114 l 0.115835,0.127956 -0.11298,0.09345 c -0.145407,0.120271 -0.17659,0.118318 -0.10445,-0.0065 z m 0.173142,0.04635 c 0.0029,-0.0295 0.0286,-0.06936 0.05699,-0.08858 0.04548,-0.03074 0.04665,-0.04512 0.01006,-0.1197088 -0.07795,-0.158347 -0.0086,-0.166935 0.110759,-0.01372 l 0.06347,0.08146 -0.09444,0.0971 c -0.105808,0.108788 -0.154683,0.123262 -0.146739,0.04346 z M 9.1513428,9.9365662 c 0.031584,-0.05862 0.1183653,-0.07326 0.3868268,-0.06529 0.2287534,0.0068 0.2524726,0.01815 0.1635434,0.07828 -0.036736,0.02484 -0.1001384,0.02951 -0.2058963,0.01517 -0.2033451,-0.02759 -0.2063452,-0.02762 -0.2932774,-0.0038 -0.060098,0.01645 -0.0705,0.0115 -0.051197,-0.02433 z m 3.8686652,-0.958677 0.03411,-0.342825 0.14562,0 c 0.202442,0 0.298751,0.04744 0.330908,0.163018 0.05086,0.182869 -0.155345,0.382377 -0.350127,0.338716 -0.06986,-0.01566 -0.07741,-0.0084 -0.08653,0.08338 -0.007,0.07032 -0.0248,0.100535 -0.05906,0.100535 -0.04088,0 -0.04335,-0.05714 -0.01494,-0.342826 z m 0.301839,0.05815 c 0.111864,-0.03597 0.156618,-0.150231 0.09558,-0.244054 -0.08174,-0.12568 -0.273435,-0.07885 -0.287356,0.0702 -0.0177,0.189394 0.02451,0.227634 0.191773,0.173852 z m 10.980294,-0.05815 0.03411,-0.342825 0.145029,0 c 0.215077,0 0.296844,0.03847 0.329245,0.154908 0.05334,0.191785 -0.0653,0.330762 -0.282416,0.330762 -0.140587,0 -0.142188,0.001 -0.152043,0.09999 -0.0071,0.06984 -0.0247,0.09999 -0.05899,0.09999 -0.04088,0 -0.04335,-0.05714 -0.01494,-0.342826 z m 0.377481,0.01449 c 0.06454,-0.07596 0.06176,-0.210104 -0.0051,-0.249462 -0.0793,-0.04665 -0.207732,-0.02357 -0.234428,0.04213 -0.04845,0.119231 -0.0398,0.189379 0.02874,0.234072 0.09468,0.06169 0.140625,0.05586 0.210802,-0.02674 z m -9.644278,-0.05851 c 0.174748,-0.277026 0.274899,-0.403188 0.372391,-0.469115 0.07389,-0.04997 0.07182,-0.04486 -0.09542,0.234933 -0.151635,0.253662 -0.359691,0.506749 -0.416586,0.506749 -0.01777,0 0.04504,-0.122655 0.139625,-0.272567 z m -5.7824196,0.192654 c -0.027449,-0.01661 0.00302,-0.05517 0.107407,-0.135906 0.3160011,-0.244424 0.418137,-0.414784 0.2695071,-0.449529 -0.031871,-0.0075 -0.1228268,0.01087 -0.2021097,0.04072 -0.1636588,0.06161 -0.1884009,0.05548 -0.1265495,-0.03137 0.1242495,-0.174474 0.502585,-0.114505 0.4835597,0.07665 -0.00953,0.09578 -0.068634,0.173963 -0.2381996,0.315093 l -0.1458813,0.121418 0.1893943,0 c 0.1369223,0 0.1846643,0.0099 0.1723229,0.03571 -0.019737,0.04129 -0.4483438,0.06419 -0.5094516,0.02722 z m 0.9803216,-0.07722 0.0099,-0.09999 -0.196682,0 -0.1966805,0 0.1119623,-0.16427 c 0.1368082,-0.200722 0.3576762,-0.38303 0.3932132,-0.324571 0.01304,0.02146 0.01204,0.08559 -0.0022,0.142513 -0.01427,0.05692 -0.01011,0.156381 0.009,0.221022 0.02926,0.09838 0.02698,0.126031 -0.01373,0.169731 -0.02688,0.02871 -0.05119,0.07546 -0.05402,0.10388 -0.0029,0.02842 -0.01985,0.05168 -0.03784,0.05168 -0.01799,0 -0.02821,-0.045 -0.02276,-0.09999 z m 0.0343,-0.353093 0.01522,-0.161145 -0.129124,0.155804 c -0.07102,0.08569 -0.12989,0.163461 -0.13082,0.172818 -9.35e-4,0.0094 0.05035,0.01176 0.113928,0.0053 l 0.115616,-0.01168 0.01522,-0.161145 z m 0.320508,0.402414 -0.109637,-0.04843 0.203546,-0.0089 c 0.17158,-0.0075 0.207819,-0.01813 0.230717,-0.0676 0.03314,-0.07157 0.01033,-0.09329 -0.143476,-0.137495 -0.125991,-0.03618 -0.128065,-0.08686 -0.0036,-0.08686 0.104163,0 0.200064,-0.06528 0.19163,-0.130448 -0.0063,-0.0485 -0.03464,-0.05494 -0.232405,-0.05275 -0.223587,0.0025 -0.224665,0.0021 -0.145817,-0.04999 0.119022,-0.07866 0.337634,-0.0704 0.421883,0.01593 0.05662,0.05802 0.06077,0.08301 0.02741,0.16427 -0.02168,0.05273 -0.03112,0.134389 -0.02102,0.181547 0.02482,0.116234 -0.0094,0.178307 -0.126428,0.228864 -0.122839,0.05311 -0.156299,0.05218 -0.292813,-0.0081 z m 0.686546,0.01423 c -0.173945,-0.08043 -0.168569,-0.438883 0.0088,-0.581373 0.09865,-0.07929 0.301528,-0.09256 0.395793,-0.02589 0.05462,0.03862 0.0457,0.04202 -0.112472,0.04285 -0.12719,6.98e-4 -0.190231,0.01574 -0.242864,0.05805 -0.105733,0.08497 -0.09113,0.110561 0.05357,0.0938 0.108544,-0.01257 0.142421,-0.003 0.206734,0.05856 0.100633,0.09629 0.08931,0.226102 -0.02794,0.320324 -0.09714,0.0781 -0.167374,0.08649 -0.28158,0.03368 z m 0.20498,-0.07884 c 0.09166,-0.04095 0.103729,-0.186739 0.01896,-0.228334 -0.102912,-0.05046 -0.200037,-0.02262 -0.244459,0.07009 -0.03413,0.07125 -0.02995,0.09128 0.02847,0.135702 0.07898,0.06011 0.106094,0.06321 0.19713,0.02254 z m 0.3918,0.08298 c -0.09354,-0.02358 -0.156628,-0.07142 -0.126168,-0.09568 0.007,-0.0054 0.07152,-2.93e-4 0.143752,0.01146 0.162957,0.02652 0.275928,-0.006 0.283448,-0.08154 0.0064,-0.06343 -0.07781,-0.116201 -0.185225,-0.116201 -0.104144,0 -0.05626,-0.06003 0.07705,-0.09665 0.08046,-0.0221 0.121372,-0.05172 0.133072,-0.09637 0.02223,-0.08479 -0.08417,-0.120804 -0.258052,-0.08733 -0.153328,0.02952 -0.190806,0.01101 -0.09633,-0.04758 0.08577,-0.05319 0.315311,-0.0554 0.391011,-0.0038 0.04916,0.03353 0.05466,0.0782 0.03551,0.28723 -0.02434,0.266368 -0.05095,0.308474 -0.212734,0.337313 -0.04578,0.0082 -0.129182,0.0033 -0.185338,-0.0109 z m 2.018223,0.007 c -0.08745,-0.02183 -0.114156,-0.09652 -0.100693,-0.281798 0.0076,-0.101422 -0.002,-0.121417 -0.05655,-0.121417 -0.03634,0 -0.06351,-0.01905 -0.06111,-0.04285 0.0023,-0.02381 0.03336,-0.04285 0.06969,-0.04285 0.0436,0 0.06731,-0.01905 0.0711,-0.05714 0.0032,-0.03174 0.0275,-0.05714 0.05475,-0.05714 0.02725,0 0.04652,0.02539 0.04335,0.05714 -0.0047,0.04651 0.0161,0.05714 0.111492,0.05714 0.147758,0 0.129788,0.06744 -0.02142,0.08037 -0.09952,0.0085 -0.105255,0.01493 -0.116725,0.130242 -0.01319,0.133468 0.02763,0.208008 0.122291,0.222648 0.03393,0.0053 0.06624,0.02562 0.07181,0.04526 0.01084,0.03848 -0.05973,0.04239 -0.187891,0.01039 z m 0.470312,-0.01584 c -0.112836,-0.04458 -0.177917,-0.118522 -0.07967,-0.09051 0.09006,0.02569 0.31925,0.0294 0.365078,0.0059 0.07244,-0.03711 0.0464,-0.06759 -0.07484,-0.08779 -0.161805,-0.02696 -0.294356,-0.09309 -0.28926,-0.144308 0.0075,-0.07612 0.140664,-0.156395 0.259291,-0.156395 0.121309,0 0.274417,0.0511 0.270521,0.09029 -0.0028,0.02905 -0.04215,0.02867 -0.221614,-0.0022 -0.115928,-0.01992 -0.143422,-0.01565 -0.173767,0.02696 -0.03874,0.05441 0.0057,0.0849 0.123982,0.0849 0.253685,0 0.32501,0.215391 0.09394,0.283692 -0.129483,0.03827 -0.15224,0.03739 -0.273658,-0.01058 z m 1.269597,-0.03794 c -0.09924,-0.09495 -0.123617,-0.252336 -0.0618,-0.399016 0.05926,-0.140605 0.119646,-0.19947 0.228627,-0.222855 0.0713,-0.0153 0.106942,-0.0019 0.179315,0.06733 0.08241,0.07887 0.08867,0.103044 0.07141,0.276518 -0.01712,0.17201 -0.02878,0.198036 -0.122834,0.273601 -0.129408,0.104007 -0.189701,0.104912 -0.294729,0.0044 z m 0.281059,-0.09947 c 0.03929,-0.09673 0.05385,-0.294418 0.02745,-0.37311 -0.01849,-0.05506 -0.04115,-0.0668 -0.107899,-0.05583 -0.123606,0.02031 -0.17128,0.08095 -0.183861,0.23387 -0.01782,0.215175 0.0044,0.259354 0.129795,0.259354 0.08481,0 0.114134,-0.01401 0.134555,-0.06428 z m -0.14594,-0.178364 c -0.0088,-0.02579 0.001,-0.06058 0.02195,-0.07733 0.05416,-0.04353 0.144595,-0.0037 0.125709,0.0553 -0.02107,0.06576 -0.127409,0.08163 -0.147657,0.02203 z m 3.012846,0.308056 c -0.06907,-0.06609 -0.123461,-0.217525 -0.112933,-0.314472 0.0048,-0.04371 0.04217,-0.133666 0.08317,-0.199891 0.114834,-0.185454 0.303078,-0.195123 0.416102,-0.02137 0.03438,0.05285 0.03769,0.117861 0.01317,0.259964 -0.02826,0.163471 -0.04595,0.198764 -0.129312,0.25706 -0.114322,0.07993 -0.200022,0.08586 -0.270205,0.01871 z m 0.25924,-0.110126 c 0.06995,-0.130811 0.07391,-0.348857 0.0076,-0.412388 -0.138282,-0.13231 -0.237842,-0.0457 -0.267494,0.232694 -0.02308,0.216001 0.169424,0.349014 0.259965,0.179694 z M 18.91257,8.8169832 c -0.01149,-0.01102 -0.01848,-0.0445 -0.01552,-0.0744 0.0041,-0.04004 0.02454,-0.05196 0.07807,-0.04523 0.04749,0.006 0.07073,0.02878 0.06702,0.06588 -0.0057,0.05667 -0.08997,0.09165 -0.129576,0.05375 z m 0.494609,0.273646 c -0.258721,-0.190841 -0.01257,-0.765425 0.268811,-0.627453 0.113879,0.05585 0.149749,0.148329 0.130913,0.337567 -0.01622,0.162555 -0.02882,0.19027 -0.121967,0.265046 -0.123126,0.09896 -0.171418,0.103279 -0.277759,0.02484 z m 0.262952,-0.100796 c 0.0134,-0.02485 0.03128,-0.114846 0.0397,-0.199982 0.01672,-0.167244 -0.04602,-0.269066 -0.165616,-0.269066 -0.07372,0 -0.108208,0.07388 -0.12897,0.276209 -0.02098,0.204914 -0.0039,0.238029 0.123024,0.238029 0.06782,0 0.116436,-0.01667 0.131805,-0.04519 z m -0.144799,-0.197454 c -0.0088,-0.02579 0.001,-0.06058 0.02195,-0.07733 0.05415,-0.04353 0.144595,-0.0037 0.125709,0.0553 -0.02107,0.06576 -0.127409,0.08163 -0.147656,0.02203 z m 0.59863,0.338861 c -0.01149,-0.01102 -0.0186,-0.0436 -0.01572,-0.07241 0.0038,-0.0372 0.02957,-0.05238 0.08925,-0.05238 0.06834,0 0.08089,0.01195 0.06722,0.06399 -0.01666,0.06333 -0.100316,0.09948 -0.140725,0.0608 z m 0.568222,-0.01884 c -0.106207,-0.04881 -0.148123,-0.15074 -0.131681,-0.320211 0.01556,-0.158454 0.115846,-0.312093 0.22297,-0.341002 0.08538,-0.02304 0.220986,0.02492 0.253482,0.08966 0.07457,0.148585 0.02141,0.472022 -0.08955,0.544492 -0.08061,0.05267 -0.177246,0.06292 -0.255253,0.02706 z m 0.257304,-0.205936 c 0.02135,-0.06285 0.03425,-0.156154 0.02846,-0.20734 -0.01102,-0.09987 -0.128569,-0.195175 -0.208685,-0.169184 -0.06275,0.02036 -0.119367,0.220178 -0.107835,0.380428 0.0091,0.126676 0.01031,0.127786 0.129163,0.119119 0.110814,-0.0081 0.122896,-0.01745 0.158773,-0.123023 z m -0.176881,-0.09741 c -0.02753,-0.04526 0.03073,-0.116854 0.09506,-0.116854 0.04423,0 0.05988,0.02039 0.05482,0.07142 -0.005,0.05165 -0.02471,0.07142 -0.07061,0.07142 -0.03491,0 -0.07058,-0.0117 -0.07926,-0.02599 z m 0.528574,0.307892 c -0.198062,-0.105934 -0.131833,-0.581133 0.09094,-0.652771 0.284825,-0.09158 0.407314,0.242728 0.211775,0.577993 -0.05131,0.08798 -0.07884,0.106978 -0.153999,0.106264 -0.05034,-4.75e-4 -0.117268,-0.01464 -0.148753,-0.03148 z m 0.255963,-0.166403 c 0.107412,-0.150849 0.02882,-0.429755 -0.121099,-0.429755 -0.132016,0 -0.212733,0.425253 -0.09584,0.504986 0.06152,0.04196 0.157102,0.0088 0.216952,-0.07523 z m -0.144157,-0.186921 c 0.005,-0.05165 0.02466,-0.07142 0.07056,-0.07142 0.07705,0 0.103454,0.03643 0.0706,0.09741 -0.04112,0.07626 -0.149374,0.05633 -0.141179,-0.02599 z m 0.606644,0.366633 c -0.04376,-0.04186 -0.008,-0.123798 0.05398,-0.123798 0.08347,0 0.110714,0.04918 0.05606,0.101242 -0.04771,0.04545 -0.07934,0.05193 -0.110063,0.02256 z m 0.570027,-0.01455 c -0.168899,-0.0564 -0.214506,-0.284146 -0.09973,-0.498005 0.08211,-0.152982 0.191313,-0.203281 0.319595,-0.147204 0.123325,0.05391 0.158594,0.153529 0.125947,0.355788 -0.03938,0.244028 -0.165542,0.349614 -0.345807,0.289421 z m 0.220985,-0.14496 c 0.03358,-0.08264 0.05261,-0.274465 0.03546,-0.35711 -0.01039,-0.05008 -0.03699,-0.06428 -0.120465,-0.06428 -0.127024,0 -0.150106,0.03277 -0.171012,0.242835 -0.021,0.210062 -0.0043,0.242835 0.122672,0.242835 0.08347,0 0.112917,-0.01421 0.133266,-0.06428 z m -0.137367,-0.15376 c -0.01149,-0.01102 -0.01848,-0.0445 -0.01552,-0.0744 0.0041,-0.04003 0.02454,-0.05196 0.07807,-0.04523 0.04748,0.006 0.07073,0.02878 0.06702,0.06587 -0.0057,0.05667 -0.08997,0.09165 -0.129575,0.05376 z m 0.490054,0.268035 c -0.157376,-0.128185 -0.124596,-0.457426 0.05831,-0.58566 0.12089,-0.08475 0.173581,-0.08111 0.278456,0.01923 0.07897,0.07557 0.08549,0.101591 0.06835,0.273601 -0.01712,0.172011 -0.02878,0.198036 -0.122834,0.273602 -0.124851,0.100342 -0.17826,0.10398 -0.282314,0.01923 z m 0.220295,-0.07856 c 0.05357,-0.04308 0.07486,-0.09523 0.08649,-0.211929 0.02116,-0.212523 0.0048,-0.245172 -0.122439,-0.245172 -0.122079,0 -0.15086,0.04298 -0.172169,0.25712 -0.02534,0.25519 0.04967,0.327327 0.208111,0.199981 z m -0.09831,-0.216186 c -0.0083,-0.02462 0.0018,-0.05847 0.02266,-0.07522 0.05532,-0.04444 0.137885,-0.0054 0.131182,0.06196 -0.0068,0.07046 -0.130793,0.08113 -0.15385,0.01326 z m 1.735268,0.318994 c -0.143512,-0.0584 -0.159915,-0.105619 -0.02972,-0.08562 0.05846,0.009 0.124312,0.02128 0.146348,0.02734 0.05428,0.01492 0.207727,-0.03642 0.211136,-0.07064 0.0015,-0.01514 -0.06454,-0.03646 -0.146812,-0.04738 -0.140655,-0.01867 -0.264399,-0.09243 -0.258275,-0.15395 0.0061,-0.05929 0.161297,-0.143957 0.264219,-0.143957 0.116492,0 0.268167,0.05195 0.264325,0.09054 -0.0013,0.01333 -0.07897,0.01709 -0.172517,0.0084 -0.188072,-0.01755 -0.311241,0.0214 -0.227915,0.07208 0.02543,0.01547 0.08471,0.02833 0.131726,0.02857 0.09485,4.76e-4 0.248039,0.09858 0.242408,0.155212 -0.01121,0.111557 -0.267302,0.183576 -0.424914,0.119446 z m -4.867843,-0.372843 c -0.01963,-0.05773 0.02256,-0.101359 0.09771,-0.101359 0.0459,0 0.06151,0.01977 0.05636,0.07142 -0.0054,0.05274 -0.02446,0.07142 -0.07352,0.07142 -0.03654,0 -0.07276,-0.01867 -0.08055,-0.04149 z m 1.887263,-0.02994 c 0.005,-0.05165 0.02469,-0.07142 0.0706,-0.07142 0.07705,0 0.103454,0.03643 0.0706,0.09741 -0.04112,0.07626 -0.149368,0.05632 -0.141178,-0.02599 z m -8.921798,-0.51674 c -0.0084,-0.02476 -0.002,-0.178962 0.01437,-0.342661 l 0.02965,-0.297636 0.165659,0 c 0.20662,0 0.27237,0.03139 0.306848,0.146504 0.03845,0.128408 0.03142,0.15253 -0.07354,0.251267 -0.07501,0.07056 -0.118634,0.0879 -0.221308,0.0879 -0.11974,0 -0.128441,0.0054 -0.136266,0.08402 -0.0096,0.09504 -0.06224,0.138691 -0.08535,0.07061 z m 0.405097,-0.390221 c 0.02106,-0.121642 0.01524,-0.139021 -0.05667,-0.168803 -0.107173,-0.04442 -0.217713,0.03247 -0.230431,0.160276 -0.01142,0.115279 0.04011,0.16314 0.164514,0.15256 0.09322,-0.0079 0.100499,-0.0165 0.122565,-0.144033 z m 1.607726,0.05814 c 0.155487,-0.260891 0.41477,-0.572199 0.430401,-0.516771 0.02218,0.07863 -0.482155,0.779928 -0.560873,0.779928 -0.01451,0 0.04421,-0.118421 0.130474,-0.263157 z m -5.7423653,0.09889 c 0.039991,-0.04321 0.1390902,-0.129988 0.2202203,-0.192839 0.1920313,-0.148767 0.2276093,-0.19941 0.1906711,-0.271404 -0.037522,-0.07314 -0.1433269,-0.07254 -0.2899887,0.0016 -0.1385562,0.07008 -0.1691251,0.05474 -0.085962,-0.04315 0.1508394,-0.177553 0.4885107,-0.103673 0.4680008,0.102396 -0.00634,0.06359 -0.055381,0.125039 -0.1922183,0.240794 l -0.1837209,0.155419 0.1109863,3.8e-4 c 0.1414771,4.76e-4 0.2554317,0.02765 0.2522038,0.06008 -0.00138,0.01388 -0.1285982,0.02523 -0.2827036,0.02523 l -0.2801929,0 0.072712,-0.07856 z m 0.6474763,0.03365 c -0.047127,-0.02344 -0.085105,-0.04844 -0.084401,-0.05556 7.066e-4,-0.0071 0.085559,-0.0052 0.1885427,0.0043 0.149262,0.01376 0.197028,0.0079 0.235421,-0.02864 0.0728,-0.06936 0.03423,-0.125869 -0.109565,-0.160505 -0.155213,-0.03739 -0.162334,-0.07249 -0.01966,-0.09699 0.197754,-0.03396 0.268217,-0.136487 0.132468,-0.192749 -0.05185,-0.0215 -0.122474,-0.02227 -0.230496,-0.0025 -0.1509226,0.02761 -0.1538483,0.02684 -0.09502,-0.02497 0.08878,-0.07819 0.257205,-0.09716 0.37363,-0.04209 l 0.09749,0.04612 -0.02532,0.254766 c -0.02312,0.230881 -0.03252,0.258935 -0.102434,0.299239 -0.09627,0.05553 -0.248436,0.05534 -0.360576,-4.44e-4 z m 0.594693,-0.0086 -0.07032,-0.0535 0.16492,0.01396 c 0.137601,0.01165 0.177392,0.0039 0.240137,-0.04649 0.100847,-0.08105 0.101716,-0.128116 0.0021,-0.10671 -0.103761,0.02226 -0.27147,-0.03138 -0.305507,-0.09772 -0.0459,-0.08944 -0.01565,-0.198477 0.07528,-0.271575 0.111825,-0.08988 0.254019,-0.09165 0.339331,-0.0042 0.130408,0.133634 0.074,0.479944 -0.09395,0.576812 -0.102038,0.05885 -0.267168,0.0539 -0.351865,-0.01056 z m 0.374426,-0.305653 c 0.11377,-0.09144 0.05911,-0.240795 -0.08815,-0.240795 -0.09604,0 -0.169798,0.06322 -0.178754,0.15321 -0.0061,0.05917 0.0773,0.132478 0.150319,0.132478 0.0334,0 0.08587,-0.0202 0.116589,-0.04489 z m 0.579868,0.275825 c 0.0088,-0.08773 0.008,-0.08809 -0.171093,-0.08809 -0.12225,0 -0.178622,-0.01144 -0.176001,-0.03571 0.0109,-0.101821 0.395829,-0.507096 0.481502,-0.507096 0.01457,0 0.01714,0.09385 0.0057,0.208553 -0.0114,0.114703 -0.0078,0.220938 0.008,0.236077 0.03433,0.03284 -0.06326,0.247846 -0.119726,0.263829 -0.02176,0.0062 -0.03354,-0.02596 -0.02841,-0.07756 z m 0.03202,-0.32276 c 0.01658,-0.166615 -0.007,-0.160658 -0.165299,0.04183 l -0.08378,0.107133 0.117124,0 0.117123,0 0.01476,-0.148966 z m 0.343246,0.361947 c -0.06792,-0.06497 -0.09828,-0.255646 -0.06011,-0.377151 0.01855,-0.05891 0.07913,-0.14297 0.136155,-0.188797 0.08752,-0.07034 0.120185,-0.08011 0.219958,-0.06576 0.06446,0.0093 0.135412,0.0343 0.1577,0.05563 0.03412,0.03266 0.01411,0.03845 -0.126864,0.03667 -0.140685,-0.0018 -0.179136,0.0093 -0.240974,0.06931 l -0.07358,0.07142 0.169438,0.01537 c 0.114688,0.0104 0.182396,0.03294 0.209539,0.06974 0.05896,0.07993 0.0335,0.233629 -0.04985,0.30057 -0.08583,0.06896 -0.275429,0.07618 -0.341464,0.013 z m 0.261608,-0.05891 c 0.08271,-0.02684 0.08949,-0.203006 0.0085,-0.223569 -0.03508,-0.0089 -0.09118,-0.02314 -0.12471,-0.0316 -0.08099,-0.02046 -0.179467,0.164338 -0.122978,0.230762 0.03682,0.0433 0.146401,0.05448 0.239111,0.02441 z m 1.680483,-0.111219 c -0.0014,-0.183652 -0.01046,-0.214266 -0.06323,-0.214266 -0.08151,0 -0.07409,-0.04848 0.01074,-0.07142 0.03695,-0.01 0.06966,-0.04298 0.07268,-0.07335 0.0031,-0.03037 0.02756,-0.05521 0.05454,-0.05521 0.02725,0 0.04652,0.02539 0.04335,0.05714 -0.0038,0.03728 0.01612,0.05714 0.05707,0.05714 0.08544,0 0.163272,0.02925 0.160189,0.06019 -0.0014,0.01403 -0.05404,0.02551 -0.116992,0.02551 l -0.114456,0 -0.01403,0.140803 c -0.01514,0.15165 0.03382,0.230592 0.142891,0.230592 0.03469,0 0.06182,0.01286 0.06022,0.02857 -0.0016,0.01571 -0.06782,0.02857 -0.147214,0.02857 l -0.144368,0 -0.0017,-0.214266 z m 0.530952,0.179398 c -0.110927,-0.04878 -0.07797,-0.08183 0.06186,-0.06202 0.135702,0.01922 0.296171,-0.0031 0.300022,-0.04181 0.0013,-0.01284 -0.08437,-0.04492 -0.190326,-0.07129 -0.212516,-0.0529 -0.250484,-0.09931 -0.164251,-0.200809 0.07078,-0.0833 0.206955,-0.108442 0.351856,-0.06495 0.177145,0.05317 0.145684,0.09067 -0.07582,0.09036 -0.238408,-3.17e-4 -0.300178,0.05395 -0.09448,0.08304 0.161039,0.02277 0.278872,0.08576 0.272884,0.145886 -0.0023,0.02321 -0.03618,0.06791 -0.07527,0.09933 -0.079,0.06349 -0.26798,0.07438 -0.386463,0.02227 z m 1.276877,-0.0363 c -0.07714,-0.09634 -0.08983,-0.24671 -0.03263,-0.387011 0.07615,-0.186767 0.208248,-0.263198 0.362445,-0.209721 0.144939,0.05027 0.161234,0.405905 0.02635,0.575057 -0.09652,0.121039 -0.268225,0.131488 -0.356169,0.02167 z m 0.308186,-0.07881 c 0.03413,-0.08396 0.05057,-0.248586 0.03599,-0.360681 -0.01011,-0.07807 -0.02488,-0.08928 -0.118095,-0.08928 -0.123503,0 -0.149899,0.04192 -0.173929,0.27621 -0.02098,0.204791 -0.0039,0.238029 0.12271,0.238029 0.08347,0 0.112911,-0.01421 0.133259,-0.06428 z m -0.137367,-0.15376 c -0.01149,-0.01102 -0.0186,-0.0436 -0.01572,-0.07241 0.0038,-0.0372 0.02957,-0.05238 0.08925,-0.05238 0.06834,0 0.08089,0.01195 0.06722,0.06399 -0.01666,0.06333 -0.100316,0.09948 -0.140725,0.0608 z m 2.966035,0.229426 c -0.08205,-0.102441 -0.09221,-0.24685 -0.02814,-0.399425 0.07902,-0.188141 0.251881,-0.266189 0.383071,-0.172958 0.16422,0.116708 0.101624,0.567666 -0.08728,0.628957 -0.112717,0.03657 -0.209416,0.01613 -0.267636,-0.05657 z m 0.296566,-0.06665 c 0.07021,-0.09857 0.07522,-0.337945 0.0084,-0.401841 -0.08825,-0.08443 -0.153721,-0.07001 -0.222471,0.04897 -0.06652,0.115104 -0.07347,0.296514 -0.01402,0.366394 0.05053,0.05944 0.181624,0.05166 0.228046,-0.01353 z m -0.124254,-0.163768 c -0.01094,-0.01047 -0.01756,-0.04261 -0.01471,-0.07142 0.0065,-0.06599 0.131614,-0.07139 0.153608,-0.0066 0.02071,0.06101 -0.09106,0.123837 -0.138916,0.07806 z m 0.464646,0.238824 c -0.183569,-0.175636 -0.02717,-0.619741 0.21823,-0.619741 0.04297,0 0.110424,0.02458 0.149896,0.05461 0.06459,0.04914 0.06952,0.07746 0.04909,0.282688 -0.01838,0.184192 -0.03582,0.239646 -0.09101,0.288212 -0.09105,0.08019 -0.239103,0.07757 -0.32621,-0.0058 z m 0.295085,-0.08408 c 0.03413,-0.08396 0.05057,-0.248586 0.03601,-0.360681 -0.01011,-0.07807 -0.02492,-0.08928 -0.118101,-0.08928 -0.121425,0 -0.150294,0.04327 -0.171581,0.25712 -0.02125,0.213987 -0.0011,0.257119 0.120676,0.257119 0.08314,0 0.112619,-0.01425 0.132942,-0.06428 z m -0.137363,-0.15376 c -0.01149,-0.01102 -0.0186,-0.0436 -0.0157,-0.07241 0.0038,-0.0372 0.02957,-0.05238 0.08925,-0.05238 0.06834,0 0.08087,0.01195 0.06722,0.06399 -0.01666,0.06333 -0.100317,0.09948 -0.14073,0.0608 z m 0.580468,0.239466 c 0.01103,-0.04219 0.03933,-0.06428 0.08226,-0.06428 0.04293,0 0.06678,0.02209 0.06944,0.06428 0.0032,0.05273 -0.01152,0.06428 -0.08226,0.06428 -0.0708,0 -0.08329,-0.01155 -0.06944,-0.06428 z m 0.496972,-0.0098 c -0.02649,-0.04073 -0.04783,-0.141803 -0.04746,-0.224609 0.0013,-0.280651 0.190647,-0.454793 0.38583,-0.354829 0.163476,0.08372 0.167173,0.468674 0.0057,0.598414 -0.103992,0.08357 -0.283848,0.07365 -0.3441,-0.01898 z m 0.338148,-0.140212 c 0.07393,-0.217533 0.0083,-0.385679 -0.150351,-0.385679 -0.06668,0 -0.08225,0.01783 -0.11227,0.12856 -0.0191,0.07071 -0.03062,0.187134 -0.02546,0.258725 0.0093,0.129261 0.01022,0.130104 0.12933,0.121417 0.11081,-0.0081 0.122894,-0.01744 0.158771,-0.123023 z m -0.158932,-0.09757 c -0.0603,-0.03526 -0.0081,-0.116694 0.07487,-0.116694 0.05192,0 0.06462,0.01516 0.05207,0.06204 -0.0191,0.07125 -0.06485,0.09095 -0.126939,0.05465 z m 0.443134,0.233274 c -0.07762,-0.114677 -0.04455,-0.403611 0.05857,-0.512144 0.101526,-0.106795 0.220914,-0.116806 0.330599,-0.02772 0.07998,0.06495 0.08513,0.08577 0.06692,0.270592 -0.01706,0.172712 -0.03174,0.210375 -0.106342,0.274033 -0.121017,0.103099 -0.278234,0.100959 -0.34978,-0.0048 z m 0.317786,-0.07991 c 0.0558,-0.08987 0.06732,-0.194525 0.03683,-0.334339 -0.02734,-0.125164 -0.108134,-0.141685 -0.226742,-0.04636 -0.06514,0.05235 -0.0755,0.08375 -0.07491,0.22661 8.96e-4,0.203767 0.01398,0.226853 0.128729,0.226853 0.0657,0 0.103461,-0.02019 0.136121,-0.07277 z m -0.121898,-0.146261 c -0.04373,-0.04186 -0.008,-0.123798 0.05398,-0.123798 0.08347,0 0.110712,0.04918 0.05606,0.101242 -0.04771,0.04545 -0.07934,0.05193 -0.110063,0.02256 z m 0.580926,0.242741 c 0.01149,-0.04438 0.03921,-0.06657 0.08281,-0.06657 0.09739,0 0.07658,0.111521 -0.02306,0.123704 -0.06416,0.0078 -0.07422,-0.0017 -0.0597,-0.05714 z m 0.489435,-0.01233 c -0.08041,-0.100417 -0.093,-0.250369 -0.03243,-0.387173 0.102124,-0.230816 0.288206,-0.290928 0.421782,-0.13626 0.09836,0.113881 0.08329,0.362034 -0.03064,0.504905 -0.09786,0.122707 -0.26821,0.131507 -0.358687,0.01853 z m 0.310705,-0.07567 c 0.04873,-0.119909 0.053,-0.322619 0.0081,-0.386464 -0.05154,-0.07341 -0.186064,-0.08451 -0.221739,-0.01831 -0.0134,0.02486 -0.03182,0.120223 -0.0409,0.21193 -0.02254,0.22512 -0.0074,0.257119 0.121254,0.257119 0.08347,0 0.112917,-0.01421 0.133261,-0.06428 z m -0.138396,-0.154748 c -0.01094,-0.01047 -0.01756,-0.04261 -0.01471,-0.07142 0.0038,-0.03682 0.0295,-0.05238 0.08698,-0.05238 0.09406,0 0.107522,0.09631 0.01752,0.125503 -0.06617,0.02147 -0.06558,0.02148 -0.08982,-0.0017 z m 0.461201,0.248416 c -0.02901,-0.03097 -0.05849,-0.109022 -0.0656,-0.173439 -0.0267,-0.24297 0.125484,-0.455894 0.325743,-0.455894 0.0923,0 0.110252,0.01409 0.146374,0.114854 0.0598,0.166812 0.02921,0.401809 -0.06458,0.495523 -0.09352,0.09354 -0.263382,0.102949 -0.342035,0.01896 z m 0.298533,-0.09367 c 0.01434,-0.03535 0.03262,-0.127547 0.0406,-0.204874 0.01642,-0.157809 -0.03947,-0.245084 -0.156276,-0.245084 -0.08425,0 -0.118696,0.06424 -0.1379,0.257119 -0.02125,0.213987 -0.0011,0.257119 0.120675,0.257119 0.08314,0 0.11262,-0.01425 0.132946,-0.06428 z m -0.137367,-0.15376 c -0.01149,-0.01102 -0.0186,-0.0436 -0.0157,-0.07241 0.0038,-0.0372 0.02957,-0.05238 0.08925,-0.05238 0.06834,0 0.08087,0.01195 0.06722,0.06399 -0.01666,0.06333 -0.100316,0.09947 -0.14073,0.0608 z m 1.000525,0.253751 c 0.02634,-0.0275 0.136632,-0.123917 0.245042,-0.214266 l 0.197107,-0.164271 -0.203363,0 c -0.166576,0 -0.202516,-0.0085 -0.198706,-0.04679 0.0041,-0.04104 0.0355,-0.04433 0.255425,-0.02678 0.137919,0.01101 0.25701,0.02599 0.264641,0.03329 0.0077,0.0073 -0.08793,0.09579 -0.212376,0.196629 l -0.226254,0.183348 0.19004,0.0087 c 0.115498,0.0053 0.193931,0.02272 0.199967,0.04442 0.0075,0.02674 -0.06159,0.03571 -0.274762,0.03571 -0.265702,0 -0.281506,-0.0033 -0.236761,-0.04999 z m 0.652492,-0.0071 c -0.06956,-0.05099 -0.0705,-0.05582 -0.01083,-0.05526 0.03595,3.17e-4 0.127319,0.01126 0.203067,0.02427 0.117473,0.02018 0.143246,0.0159 0.175298,-0.02911 0.03152,-0.04427 0.02327,-0.05565 -0.0513,-0.07062 -0.274062,-0.05505 -0.328513,-0.07437 -0.324456,-0.115092 0.01425,-0.144715 0.212188,-0.230907 0.400373,-0.174476 0.182493,0.05473 0.153827,0.09235 -0.07011,0.09203 -0.24958,-3.49e-4 -0.304926,0.05778 -0.08304,0.08723 0.14333,0.01902 0.266355,0.09249 0.260101,0.155319 -0.0016,0.01572 -0.03486,0.05428 -0.07392,0.08571 -0.09502,0.07638 -0.320951,0.07638 -0.425124,0 z m 0.617068,-0.285688 c 0.02844,-0.285688 0.04231,-0.342826 0.08316,-0.342826 0.03489,0 0.04597,0.03094 0.03836,0.107133 l -0.01067,0.107133 0.160614,-0.0097 c 0.137462,-0.0083 0.16729,-1.43e-4 0.206973,0.05635 0.06331,0.09014 0.03305,0.424704 -0.03835,0.424704 -0.0386,0 -0.04508,-0.03978 -0.03045,-0.186617 0.01656,-0.166507 0.01104,-0.189138 -0.05145,-0.210003 -0.163226,-0.0545 -0.258302,0.03665 -0.28152,0.269921 -0.0092,0.09358 -0.02552,0.126699 -0.06166,0.126699 -0.04088,0 -0.04335,-0.05714 -0.01494,-0.342825 z m -5.38555,-0.02087 c -0.02177,-0.0069 -0.03716,-0.0371 -0.0342,-0.06721 0.0038,-0.03936 0.02844,-0.05476 0.0872,-0.05476 0.05841,0 0.08025,0.01544 0.07638,0.05408 -0.0057,0.05764 -0.06428,0.08835 -0.129388,0.06789 z m 1.876397,8.24e-4 c -0.03395,-0.03249 -0.01004,-0.116346 0.03753,-0.131788 0.04626,-0.01501 0.115552,0.02904 0.111391,0.07084 -0.0032,0.0317 -0.126664,0.08224 -0.148924,0.06095 z m -11.425646,-1.065563 0.03411,-0.342826 0.181346,0 c 0.148939,0 0.194442,0.01253 0.254638,0.07012 0.04032,0.03857 0.07019,0.101114 0.06643,0.138992 -0.0091,0.09288 -0.14077,0.219326 -0.22864,0.219807 -0.175524,9.51e-4 -0.221312,0.02963 -0.232877,0.145786 -0.008,0.07957 -0.02495,0.110943 -0.06011,0.110943 -0.04088,0 -0.04335,-0.05714 -0.01494,-0.342825 z m 0.395173,-0.04449 c 0.03886,-0.0305 0.04556,-0.05956 0.02745,-0.119333 -0.0197,-0.065 -0.04815,-0.08189 -0.16053,-0.09522 l -0.136605,-0.01621 -0.01534,0.155086 -0.01534,0.155087 0.124574,-0.01955 c 0.06852,-0.01075 0.147705,-0.03769 0.175965,-0.05987 z m 0.269014,0.351603 c 0.0092,-0.01964 0.04937,-0.03982 0.08895,-0.04484 0.06766,-0.0086 0.07341,-0.02426 0.09732,-0.264262 0.01391,-0.140322 0.01352,-0.255132 -0.0011,-0.255132 -0.01455,0 -0.05315,-0.01887 -0.08574,-0.04194 -0.05424,-0.03834 -0.04176,-0.04202 0.145169,-0.04285 0.16041,-7.29e-4 0.203563,0.0083 0.200214,0.04195 -0.0023,0.02381 -0.03336,0.04285 -0.06969,0.04285 -0.06056,0 -0.06729,0.01905 -0.09098,0.25712 -0.02366,0.238073 -0.02086,0.257119 0.03982,0.257119 0.03634,0 0.06351,0.01905 0.06111,0.04285 -0.0032,0.03339 -0.0482,0.04285 -0.203196,0.04285 -0.144529,0 -0.194279,-0.0098 -0.181923,-0.03571 z m 0.612096,-0.316277 0.03498,-0.351988 0.16328,0.0185 c 0.215158,0.02439 0.287611,0.09514 0.289575,0.282793 0.0027,0.259732 -0.14771,0.402678 -0.423763,0.402678 l -0.09916,0 0.03498,-0.351988 z m 0.298128,0.198584 c 0.08112,-0.06274 0.09945,-0.108862 0.106331,-0.267327 0.0042,-0.09885 -0.06601,-0.160221 -0.222895,-0.19466 l -0.08799,-0.01932 -0.02877,0.289329 -0.02877,0.289329 0.09173,-0.01825 c 0.05047,-0.01004 0.127152,-0.04564 0.170427,-0.07911 z m 1.13558,-0.146568 0.02979,-0.299973 -0.09811,0 c -0.0654,0 -0.09667,-0.01428 -0.09383,-0.04285 0.0035,-0.03456 0.05546,-0.04285 0.268609,-0.04285 0.196828,0 0.260005,0.0091 0.247367,0.03571 -0.0092,0.01964 -0.06408,0.03974 -0.121629,0.04466 l -0.104658,0.009 -0.02971,0.298162 c -0.02446,0.245988 -0.03835,0.298163 -0.07871,0.298163 -0.04049,0 -0.04383,-0.05238 -0.01918,-0.299973 z m 0.621336,0 0.02979,-0.299973 -0.09811,0 c -0.0654,0 -0.09666,-0.01428 -0.09382,-0.04285 0.0035,-0.03456 0.05546,-0.04285 0.268609,-0.04285 0.196827,0 0.260005,0.0091 0.247366,0.03571 -0.0092,0.01964 -0.06408,0.03974 -0.121627,0.04466 l -0.104659,0.009 -0.02971,0.298162 c -0.02446,0.245988 -0.03835,0.298163 -0.07872,0.298163 -0.04049,0 -0.04383,-0.05238 -0.01918,-0.299973 z m 0.633773,0.203573 c 0.01265,-0.12579 -0.03872,-0.289388 -0.144932,-0.46266 -0.04704,-0.07675 -0.07762,-0.145908 -0.06792,-0.153692 0.0095,-0.0078 0.08019,0.05465 0.156699,0.138746 l 0.13909,0.152899 0.106852,-0.119696 c 0.05879,-0.06583 0.137524,-0.133394 0.175002,-0.150138 0.05891,-0.02631 0.05354,-0.01154 -0.03937,0.108841 -0.182461,0.236379 -0.219272,0.302058 -0.249108,0.444472 -0.03275,0.156318 -0.09089,0.187731 -0.07635,0.04123 z m 6.92035,-0.203573 0.02979,-0.299973 -0.114457,0 c -0.07994,0 -0.11317,-0.01292 -0.110195,-0.04285 0.0035,-0.03456 0.05546,-0.04285 0.268608,-0.04285 0.196828,0 0.260005,0.0091 0.247366,0.03571 -0.0092,0.01964 -0.06408,0.03974 -0.121627,0.04466 l -0.104658,0.009 -0.02971,0.298162 c -0.0178,0.179729 -0.04278,0.298163 -0.06238,0.298163 -0.01972,0 -0.02087,-0.119037 -0.0028,-0.299973 z m 0.432231,0.257119 c 0.0026,-0.02666 0.03518,-0.04285 0.08605,-0.04285 0.0811,0 0.08194,-0.002 0.107158,-0.255132 0.02378,-0.240007 0.02127,-0.255674 -0.0447,-0.264262 -0.03856,-0.005 -0.07457,-0.0252 -0.08001,-0.04484 -0.0073,-0.02594 0.04448,-0.03571 0.18903,-0.03571 0.15503,0 0.197991,0.0095 0.194666,0.04285 -0.0023,0.02381 -0.03336,0.04285 -0.06969,0.04285 -0.06056,0 -0.06729,0.01905 -0.09098,0.25712 -0.02366,0.238073 -0.02086,0.257119 0.03982,0.257119 0.03634,0 0.06351,0.01905 0.06111,0.04285 -0.0032,0.03333 -0.04789,0.04285 -0.200476,0.04285 -0.152609,0 -0.195266,-0.0095 -0.191946,-0.04285 z m 0.57402,-0.18171 c 0.02915,-0.294297 0.08155,-0.494184 0.12621,-0.482401 0.01945,0.0051 0.06726,0.07835 0.106267,0.162707 l 0.07092,0.153375 0.03117,-0.08891 c 0.03325,-0.0947 0.156641,-0.234433 0.207045,-0.234433 0.01702,0 0.01474,0.156714 -0.0052,0.35711 -0.02974,0.298385 -0.04356,0.35711 -0.08457,0.35711 -0.03911,0 -0.04522,-0.04487 -0.03014,-0.221408 l 0.01902,-0.221408 -0.06474,0.106987 c -0.03561,0.05884 -0.07544,0.107053 -0.08862,0.107133 -0.01312,8.6e-5 -0.05187,-0.05449 -0.08603,-0.121272 l -0.06214,-0.121417 -0.03304,0.235692 c -0.02573,0.183767 -0.04345,0.235693 -0.08069,0.235693 -0.03779,0 -0.04308,-0.04676 -0.02536,-0.224563 z m 0.665804,-0.118262 0.03411,-0.342826 0.245263,0 c 0.196211,0 0.244409,0.0086 0.241,0.04285 -0.0032,0.03333 -0.04789,0.04285 -0.200477,0.04285 l -0.196211,0 -0.0099,0.09999 -0.0099,0.09999 0.196211,0 c 0.152608,0 0.195267,0.0095 0.19195,0.04285 -0.0032,0.03333 -0.04789,0.04285 -0.20048,0.04285 l -0.196211,0 -0.01139,0.114276 -0.01139,0.114275 0.138944,3.8e-4 c 0.166707,4.76e-4 0.283596,0.02553 0.280163,0.06008 -0.0014,0.01388 -0.120245,0.02524 -0.264133,0.02524 l -0.261614,0 0.03411,-0.342826 z m 1.388983,0.31083 c -0.156262,-0.07092 -0.196525,-0.338463 -0.07696,-0.511384 0.07154,-0.103483 0.155202,-0.142272 0.3068,-0.142272 0.0968,0 0.121858,0.01323 0.142718,0.07538 0.03253,0.0969 0.0098,0.113242 -0.07785,0.05609 -0.09819,-0.06398 -0.205359,-0.05701 -0.27272,0.01773 -0.109883,0.121926 -0.08445,0.401977 0.03969,0.437383 0.03145,0.009 0.105209,-0.0045 0.163887,-0.02982 l 0.1067,-0.04613 -0.01862,0.08037 c -0.01617,0.06967 -0.03386,0.08116 -0.133587,0.08628 -0.06327,0.0033 -0.144329,-0.0074 -0.180122,-0.02362 z m 0.476444,-0.325115 c 0.01944,-0.19641 0.04758,-0.35711 0.0625,-0.35711 0.04924,0 0.151339,0.127338 0.166068,0.207124 0.0079,0.04321 0.02602,0.07856 0.04011,0.07856 0.01409,0 0.03916,-0.03535 0.05575,-0.07856 0.03063,-0.07979 0.158052,-0.207124 0.207296,-0.207124 0.01485,0 0.01102,0.1607 -0.0085,0.35711 -0.02974,0.298385 -0.04356,0.35711 -0.08457,0.35711 -0.03952,0 -0.04477,-0.0458 -0.02704,-0.235693 l 0.02192,-0.235692 -0.07414,0.105282 c -0.106662,0.151484 -0.133959,0.153887 -0.192364,0.01694 l -0.05213,-0.12222 -0.02633,0.235693 c -0.0213,0.189389 -0.03594,0.235692 -0.07527,0.235692 -0.04099,0 -0.04321,-0.05872 -0.01353,-0.35711 z m 0.627787,0.0072 0.04407,-0.349909 0.127441,0.0097 c 0.19954,0.0152 0.27446,0.05336 0.31503,0.160489 0.111456,0.294273 -0.07506,0.529622 -0.419898,0.529622 l -0.110583,0 0.04407,-0.349909 z m 0.339432,0.211561 c 0.04537,-0.03646 0.09402,-0.243451 0.0777,-0.330487 -0.01435,-0.07636 -0.06597,-0.111207 -0.210262,-0.141987 l -0.08806,-0.01878 -0.02748,0.275685 -0.02748,0.275686 0.121499,-0.01699 c 0.06681,-0.0093 0.136141,-0.02875 0.154035,-0.04313 z M 12.08685,5.8680952 c 0.0091,-0.09197 0.01514,-0.246243 0.01317,-0.342825 l -0.0035,-0.175604 0.198496,0 c 0.175489,0 0.205483,0.0087 0.258782,0.07527 0.07919,0.09889 0.0632,0.264915 -0.03349,0.347871 -0.05393,0.04627 -0.110823,0.06252 -0.218785,0.06252 -0.144924,0 -0.145953,6.66e-4 -0.155837,0.09999 -0.0053,0.055 -0.0247,0.09999 -0.04264,0.09999 -0.01808,0 -0.02527,-0.07479 -0.01603,-0.167223 z m 0.35445,-0.13479 c 0.06995,-0.05621 0.08916,-0.222464 0.03096,-0.267929 -0.02402,-0.01877 -0.08547,-0.02999 -0.1365,-0.02493 -0.08439,0.0084 -0.0949,0.02078 -0.115908,0.13673 -0.01746,0.09603 -0.0099,0.1366 0.03078,0.164271 0.07117,0.04857 0.12284,0.04636 0.190654,-0.0081 z m 0.378337,0.099 c -0.09322,-0.02416 -0.156767,-0.0725 -0.126138,-0.09598 0.007,-0.0052 0.09161,0.0017 0.188399,0.0154 0.129542,0.01833 0.183631,0.01569 0.204885,-0.01002 0.05009,-0.0606 0.03709,-0.0747 -0.08689,-0.09398 -0.24257,-0.03773 -0.324391,-0.148635 -0.185027,-0.25078 0.09242,-0.06773 0.312601,-0.0616 0.401461,0.01118 l 0.07136,0.05846 -0.145399,-0.0177 c -0.07999,-0.0097 -0.168818,-0.02357 -0.197448,-0.03075 -0.06208,-0.01556 -0.120788,0.07472 -0.06812,0.104766 0.01993,0.01138 0.09041,0.02836 0.156611,0.03774 0.06622,0.0094 0.136712,0.03628 0.1567,0.05979 0.0588,0.06912 -0.0039,0.176713 -0.123292,0.212038 -0.119983,0.03547 -0.109587,0.03547 -0.247133,-1.79e-4 z m -1.939091,-0.159674 c 0.05529,-0.09567 0.05715,-0.116419 0.01992,-0.221408 l -0.041,-0.115843 0.120185,0.111185 0.120184,0.111184 -0.115155,0.109709 c -0.145487,0.13861 -0.182349,0.14044 -0.104195,0.0052 z m 0.170838,0.08501 c 0.0018,-0.01864 0.02409,-0.06727 0.04945,-0.108068 0.03593,-0.05783 0.0391,-0.09638 0.0143,-0.174896 -0.04492,-0.14291 -0.01307,-0.146087 0.09705,-0.0097 l 0.09521,0.117973 -0.12974,0.104277 c -0.07135,0.05735 -0.128225,0.08903 -0.126369,0.07039 z M 9.6029114,5.5344252 c 0.038962,-0.03712 0.1008893,-0.04427 0.3193211,-0.03684 0.3676465,0.0125 0.3247905,0.06416 -0.061906,0.07462 -0.2780871,0.0075 -0.3013754,0.0041 -0.2574144,-0.03778 z"
       style="fill:#73db4b;fill-opacity:1" />
  </g>
  <metadata
     id="metadata8363">
    <rdf:RDF>
      <cc:Work>
        <dc:format>image/svg+xml</dc:format>
        <dc:type
           rdf:resource="http://purl.org/dc/dcmitype/StillImage" />
        <cc:license
           rdf:resource="http://creativecommons.org/licenses/publicdomain/" />
        <dc:publisher>
          <cc:Agent
             rdf:about="http://openclipart.org/">
            <dc:title>Openclipart</dc:title>
          </cc:Agent>
        </dc:publisher>
        <dc:title>tango computer green</dc:title>
        <dc:date>2013-07-12T15:05:39</dc:date>
        <dc:description>&quot;Computer&quot; icon from Tango Project with green screen</dc:description>
        <dc:source>https://openclipart.org/detail/180746/tango-computer-green-by-saparvia-180746</dc:source>
        <dc:creator>
          <cc:Agent>
            <dc:title>saparvia</dc:title>
          </cc:Agent>
        </dc:creator>
        <dc:subject>
          <rdf:Bag>
            <rdf:li>computer</rdf:li>
            <rdf:li>device</rdf:li>
            <rdf:li>green</rdf:li>
            <rdf:li>hardware</rdf:li>
            <rdf:li>icon</rdf:li>
            <rdf:li>tango</rdf:li>
          </rdf:Bag>
        </dc:subject>
      </cc:Work>
      <cc:License
         rdf:about="http://creativecommons.org/licenses/publicdomain/">
        <cc:permits
           rdf:resource="http://creativecommons.org/ns#Reproduction" />
        <cc:permits
           rdf:resource="http://creativecommons.org/ns#Distribution" />
        <cc:permits
           rdf:resource="http://creativecommons.org/ns#DerivativeWorks" />
      </cc:License>
    </rdf:RDF>
  </metadata>
</svg>
