<?xml version="1.0"?>
<svg xmlns:rdf="http://www.w3.org/1999/02/22-rdf-syntax-ns#" xmlns="http://www.w3.org/2000/svg" xmlns:cc="http://web.resource.org/cc/" xmlns:dc="http://purl.org/dc/elements/1.1/" xmlns:svg="http://www.w3.org/2000/svg" id="svg2" viewBox="0 0 449.7 718.26" version="1.0">
  <g id="layer1" transform="translate(-168.2 -175.81)">
    <g id="g4491">
      <g id="g4366" stroke="#130e08" stroke-width=".5" transform="matrix(.99093 .13438 -.13438 .99093 89.449 -50.84)">
        <path id="path3852" d="m-179.47 459.9a26.513 215.16 0 1 1 -53.03 0 26.513 215.16 0 1 1 53.03 0z" fill="#2d81cc" transform="matrix(1.0482 -.19918 .22512 .74058 520.95 341.07)"/>
        <path id="path3925" d="m-360.98 389.54a34.671 20.395 0 1 1 -69.35 0 34.671 20.395 0 1 1 69.35 0z" fill="#00d4aa" transform="matrix(-.91048 -.022882 -.020839 .99974 118.28 470.07)"/>
      </g>
      <g id="g4362" stroke="#130e08" stroke-width=".5" transform="matrix(.98281 -.18460 .18460 .98281 -111.96 66.828)">
        <path id="path2963" d="m-179.47 459.9a26.513 215.16 0 1 1 -53.03 0 26.513 215.16 0 1 1 53.03 0z" fill="#2d81cc" transform="matrix(-.99893 -.36545 -.32801 .69137 255.47 335.59)"/>
        <path id="path3923" d="m-360.98 389.54a34.671 20.395 0 1 1 -69.35 0 34.671 20.395 0 1 1 69.35 0z" fill="#00d4aa" transform="matrix(-.91048 -.022882 -.020839 .99974 -118.45 464.12)"/>
      </g>
      <path id="path2069" d="m316.11 510.92c-0.74 35.57 0.16 86.49 9.42 110.06 9.25 23.57 26.86 19.79 41.72 20.16 14.85 0.37 32.36 1.64 42.58-21.44 10.23-23.08 13.19-70.51 13.93-106.08 0.74-35.56-4.26-84.89-13.52-108.46-9.25-23.57-22.76-21.38-37.62-21.76-14.86-0.37-28.26-3.23-38.49 19.85s-17.28 72.1-18.02 107.67z" stroke="#130e08" stroke-width=".4551" fill="#f05649"/>
      <g id="g4403">
        <g id="g1892" stroke="#130e08" transform="matrix(-.80011 -.020108 -.017334 .83158 575.59 55.895)">
          <path id="path1871" d="m346.71 292.66a108.09 96.874 0 1 1 -216.18 0 108.09 96.874 0 1 1 216.18 0z" stroke-width=".5" fill="#f0af49"/>
          <path id="path1873" d="m283.64 334.73c0 3.01-17.45 30.49-40.05 30.49-22.61 0-41.84-27.48-41.84-30.49s19.23 19.58 41.84 19.58c22.6 0 40.05-22.59 40.05-19.58z" stroke-width=".18531" fill="red"/>
          <path id="path1876" d="m-395.66 283.49a20.395 14.276 0 1 1 -40.78 0 20.395 14.276 0 1 1 40.78 0z" stroke-width=".5" fill="#f60" transform="matrix(.85267 0 0 .71810 598.39 102.39)"/>
          <g id="g1882" stroke-width=".5" transform="matrix(.52129 0 0 .48746 312.42 139.92)">
            <path id="path1878" d="m-181.51 261.05a29.572 71.381 0 1 1 -59.15 0 29.572 71.381 0 1 1 59.15 0z" fill="#fff"/>
            <path id="path1880" d="m-246.77 418.09a15.296 26.513 0 1 1 -30.6 0 15.296 26.513 0 1 1 30.6 0z" transform="translate(38.75 -130.53)"/>
          </g>
          <g id="g1886" stroke-width=".5" transform="matrix(.52129 0 0 .48746 390.42 139.92)">
            <path id="path1888" d="m-181.51 261.05a29.572 71.381 0 1 1 -59.15 0 29.572 71.381 0 1 1 59.15 0z" fill="#fff"/>
            <path id="path1890" d="m-246.77 418.09a15.296 26.513 0 1 1 -30.6 0 15.296 26.513 0 1 1 30.6 0z" transform="translate(38.75 -130.53)"/>
          </g>
        </g>
        <path id="path1905" d="m298.18 266.79c0.02-0.67 0.07-3.21 0.1-4.8 0.04-1.9-0.22-3.06-0.19-4.8 0.03-1.26-1.73-2.71-2.52-3.36-1.63-1.33-2.6-1.57-4.88-1.63-2.47-0.06-4.25 1-6.12 2.85-0.34 0.34-0.78 0.58-1.17 0.87-1.64 1.22-2.42 2.43-4.14 4.7-1.04 1.38-0.88 4.91-1.29 6.86-0.55 2.55-0.13 5.79-0.18 8.4-0.05 2.5-0.1 4.99-0.16 7.49-0.04 2.33 0.3 5.18-0.72 7.18-0.93 1.82-0.95 3.92-0.99 5.98-0.05 2.18-0.31 4.51 0.15 6.6 0.54 2.48 2.07 3.62 3.05 5.78 0.71 1.55 4.55 3.11 5.71 3.14 2.28 0.06 3.87-1.2 4.95-2.28 1.12-1.1 1.94-2.26 2.67-3.23 0.6-0.8 1.12-1.34 1.48-2.06" fill-rule="evenodd" stroke="#000" stroke-width=".81591px" fill="#f0af49"/>
        <path id="path1907" d="m462.2 270.91c0.02-0.67 0.07-3.21 0.1-4.79 0.04-1.91 0.35-3.06 0.39-4.79 0.02-1.26 1.82-2.63 2.63-3.24 1.67-1.25 2.63-1.43 4.89-1.37 2.44 0.06 4.16 1.2 5.92 3.14 0.33 0.37 0.75 0.62 1.13 0.93 1.56 1.3 2.29 2.55 3.89 4.9 0.98 1.43 0.67 4.95 1 6.92 0.43 2.57-0.12 5.79-0.18 8.4-0.05 2.5-0.1 5-0.15 7.49-0.05 2.34-0.51 5.16 0.42 7.21 0.83 1.86 0.77 3.96 0.73 6.02-0.05 2.19 0.11 4.53-0.42 6.59-0.64 2.45-2.2 3.52-3.26 5.62-0.76 1.51-4.63 2.88-5.77 2.85-2.25-0.05-3.78-1.39-4.8-2.52-1.05-1.16-1.82-2.36-2.5-3.36-0.56-0.83-1.05-1.4-1.38-2.14" fill-rule="evenodd" stroke="#000" stroke-width=".81143px" fill="#f0af49"/>
        <path id="path1909" d="m307.48 249.93c-0.64-0.7-0.51-3.12-0.48-4.82 0.04-1.55 0.11-3.11-0.19-4.5-0.37-1.67-2.81-3.21-4.25-4.01-2.36-1.3-4.48-2.59-7.13-3.77-3.3-1.47-6.26-2.09-9.45-3.84-5.85-3.23-12.18-5.84-18.29-8.56-2.54-1.13-5.9-2.32-7.11-4.98" stroke="#000" stroke-width=".81591px" fill="none"/>
        <path id="path1911" d="m317.26 237.87c-1.07-0.47-3.21-3.07-5.1-4.62-2.24-1.84-2.9-5.91-4.16-8.21-1.56-2.84-4.3-5.7-6.18-8.25-2.11-2.87-3.8-5.83-5.87-8.85-1.84-2.67-4.24-5.55-5.6-8.54-0.11-0.25-0.37-0.41-0.56-0.61" stroke="#000" stroke-width=".81591px" fill="none"/>
        <path id="path1913" d="m326.07 230.6c-0.24-0.52 0.08-4.19 0.12-5.7 0.05-2.7 0.11-5.4 0.16-8.1 0.05-2.32-0.01-4-0.74-6.01-0.92-2.57-1.59-3.48-4.22-5.21-1.88-1.24-3-4.67-4.19-6.4-2.03-2.95-4.68-4.96-6.18-8.26-0.36-0.79-1.45-1.74-1.97-2.45" stroke="#000" stroke-width=".81591px" fill="none"/>
        <path id="path1915" d="m455.97 256.96c-0.83-1.82 2.2-3.39 2.71-5.33 0.61-2.34 4.19-5.39 5.91-6.75 0.6-0.48 1.18-0.97 1.77-1.46 2.95-2.44 6.97-5.93 10.25-7.54 2.99-1.46 6.15-5.49 7.69-8.51 1.62-3.19 4.19-5.26 5.66-8.85 0.12-0.29 0.21-0.6 0.31-0.9" stroke="#000" stroke-width=".81591px" fill="none"/>
        <path id="path1917" d="m448.68 246.58c0.46-1.1 2.39-3.7 2.44-6.24 0.08-3.53-0.72-6.7-0.65-10.22 0.07-3.31-0.05-6.7 0.78-9.88 0.76-2.88 2.61-5.75 3.36-8.61 0.66-2.5 2.37-4.86 3.04-7.42 0.15-0.57 0.03-1.5 0.04-2.1" stroke="#000" stroke-width=".81591px" fill="none"/>
        <path id="path1919" d="m434.54 233.02c0.33-1.27 0.93-3.16 0.97-5.37 0.05-2.37 1.3-5.22 1.89-7.45 0.57-2.17 2.22-3.8 3-5.33 0.2-0.39 0.4-0.79 0.6-1.18 0.82-1.62 0.54-4.82 1-6.58 0.65-2.45 1.22-5.11 2.75-7.13" stroke="#000" stroke-width=".81591px" fill="none"/>
        <path id="path1921" d="m418.59 222.72c-1.39-2.5-1.34-5.24-1.28-8.13 0.08-3.6 0.06-7.04 0.8-10.48 0.59-2.73 2.11-5.69 3.34-7.71 1.38-2.29 2.66-5.42 3.34-8.02 0.44-1.68 0.92-2.83 0.96-4.47" stroke="#000" stroke-width=".81591px" fill="none"/>
        <path id="path1923" d="m402.26 216.61c0.21-0.78 0.09-3.94 0.12-5.69 0.05-2.21-2.69-4.95-3.9-6.7-1.1-1.6-1.91-5.35-1.87-7.25 0.06-2.91-1.05-5.01-0.99-7.82 0.06-2.69-0.47-4.85-0.42-7.51 0.04-1.66-0.41-3.42-1.05-4.83-0.08-0.18 0.01-0.4 0.01-0.6" stroke="#000" stroke-width=".81591px" fill="none"/>
        <path id="path1925" d="m382.4 214.01c-0.03-0.08-3.09-0.91-3.71-1.59-2.45-2.67-5.14-2.83-5.06-6.73 0.06-2.89 0.12-5.79 0.18-8.69 0.04-1.7 0.07-3.4 0.11-5.1 0.04-1.8 0.07-3.59 0.11-5.39 0.04-2.08-0.21-3.63-0.18-5.41 0.01-0.41-0.17-0.8-0.26-1.2" stroke="#000" stroke-width=".81591px" fill="none"/>
        <path id="path1927" d="m358.98 216.12c0.02-0.92-0.77-4.48-0.73-6.61 0.07-3.1 0.13-6.2 0.2-9.3 0.08-3.69-0.14-7.34-0.06-11.1 0.04-1.89-2.44-3.9-3.65-4.89-1.74-1.43-4.59-2.17-6.56-3.46" stroke="#000" stroke-width=".81591px" fill="none"/>
        <path id="path1929" d="m341.84 221.39c-1.11-0.91-4.78-3.43-5.94-5.55-1.12-2.04-0.38-9.53-0.33-12 0.01-0.6 0.03-1.2 0.04-1.8 0.07-3.13-0.16-6.41-0.09-9.6 0.07-3.1-1.44-8.08-3.84-9.4-0.19-0.1-0.38-0.21-0.57-0.31" stroke="#000" stroke-width=".81591px" fill="none"/>
        <path id="path1931" d="m424.3 225.57c-0.26-0.15-0.18-5.14-0.15-6.61 0.07-3.48 2.54-6.33 4.8-8.58 2.07-2.05 2.7-5.18 2.76-8.03 0.05-2.43 0.52-4.29 1.01-6.57 0.08-0.39 0.01-0.8 0.02-1.2" stroke="#000" stroke-width=".81591px" fill="none"/>
        <path id="path1933" d="m390.48 214.22c0.18-0.84 0.08-3.91 0.12-5.7 0.07-3.13-0.16-4.65-1.58-7.24-1.6-2.91-7.32-3.36-9.69-5.94-1.44-1.57-1.1-2.56-1.05-4.83" stroke="#000" stroke-width=".81591px" fill="none"/>
        <path id="path1935" d="m408.57 218.57c-0.6-0.66-0.13-7.59-0.08-9.6 0.06-3.22 0.99-6.17 1.05-9.27 0.02-0.6 0.03-1.2 0.04-1.8 0.04-1.93 0.66-3.67 0.7-5.68" stroke="#000" stroke-width=".81591px" fill="none"/>
        <path id="path1937" d="m439.93 237.36c0.07-3.61 0.24-11.12 2.34-15.24 1.37-2.7 2.1-5.7 3.62-7.71" stroke="#000" stroke-width=".81591px" fill="none"/>
        <path id="path1939" d="m321.66 234.38c0.17-0.34-3.86-8.5-3.81-11.19 0.1-4.94 0.49-10.2-3.76-13.29-0.85-0.62-2.18-1.05-3.14-1.58" stroke="#000" stroke-width=".81591px" fill="none"/>
        <path id="path1941" d="m304.52 253.45c-2.72-1.98-6.62-1.07-8.82-5.92-0.28-0.61-0.55-1.21-0.83-1.82-1.41-3.11-4.13-3.92-6.6-1.97-1.97 1.57-4.93 1.38-7.24 1.32" stroke="#000" stroke-width=".81591px" fill="none"/>
        <path id="path1943" d="m348.25 218.85c-1.43 1.14-0.44-3.8-1.33-5.43-2.77-5.04-4.8-9.33-1.18-12.93 1.21-1.19 0.69-5.16 0.72-6.88" stroke="#000" stroke-width=".81591px" fill="none"/>
        <g id="g1945" stroke="#130e08" transform="matrix(-.80011 -.020108 -.017334 .83158 575.59 55.895)">
          <path id="path1947" d="m346.71 292.66a108.09 96.874 0 1 1 -216.18 0 108.09 96.874 0 1 1 216.18 0z" stroke-width=".5" fill="#f0af49"/>
          <path id="path1949" d="m283.64 334.73c0 3.01-17.45 30.49-40.05 30.49-22.61 0-41.84-27.48-41.84-30.49s19.23 19.58 41.84 19.58c22.6 0 40.05-22.59 40.05-19.58z" stroke-width=".18531" fill="red"/>
          <path id="path1951" d="m-395.66 283.49a20.395 14.276 0 1 1 -40.78 0 20.395 14.276 0 1 1 40.78 0z" stroke-width=".5" fill="#f60" transform="matrix(.85267 0 0 .71810 598.39 102.39)"/>
          <g id="g1953" stroke-width=".5" transform="matrix(.52129 0 0 .48746 312.42 139.92)">
            <path id="path1955" d="m-181.51 261.05a29.572 71.381 0 1 1 -59.15 0 29.572 71.381 0 1 1 59.15 0z" fill="#fff"/>
            <path id="path1957" d="m-246.77 418.09a15.296 26.513 0 1 1 -30.6 0 15.296 26.513 0 1 1 30.6 0z" transform="translate(38.75 -130.53)"/>
          </g>
          <g id="g1959" stroke-width=".5" transform="matrix(.52129 0 0 .48746 390.42 139.92)">
            <path id="path1961" d="m-181.51 261.05a29.572 71.381 0 1 1 -59.15 0 29.572 71.381 0 1 1 59.15 0z" fill="#fff"/>
            <path id="path1963" d="m-246.77 418.09a15.296 26.513 0 1 1 -30.6 0 15.296 26.513 0 1 1 30.6 0z" transform="translate(38.75 -130.53)"/>
          </g>
        </g>
        <path id="path1965" d="m298.18 266.79c0.02-0.67 0.07-3.21 0.1-4.8 0.04-1.9-0.22-3.06-0.19-4.8 0.03-1.26-1.73-2.71-2.52-3.36-1.63-1.33-2.6-1.57-4.88-1.63-2.47-0.06-4.25 1-6.12 2.85-0.34 0.34-0.78 0.58-1.17 0.87-1.64 1.22-2.42 2.43-4.14 4.7-1.04 1.38-0.88 4.91-1.29 6.86-0.55 2.55-0.13 5.79-0.18 8.4-0.05 2.5-0.1 4.99-0.16 7.49-0.04 2.33 0.3 5.18-0.72 7.18-0.93 1.82-0.95 3.92-0.99 5.98-0.05 2.18-0.31 4.51 0.15 6.6 0.54 2.48 2.07 3.62 3.05 5.78 0.71 1.55 4.55 3.11 5.71 3.14 2.28 0.06 3.87-1.2 4.95-2.28 1.12-1.1 1.94-2.26 2.67-3.23 0.6-0.8 1.12-1.34 1.48-2.06" fill-rule="evenodd" stroke="#000" stroke-width=".81591px" fill="#f0af49"/>
        <path id="path1967" d="m462.2 270.91c0.02-0.67 0.07-3.21 0.1-4.79 0.04-1.91 0.35-3.06 0.39-4.79 0.02-1.26 1.82-2.63 2.63-3.24 1.67-1.25 2.63-1.43 4.89-1.37 2.44 0.06 4.16 1.2 5.92 3.14 0.33 0.37 0.75 0.62 1.13 0.93 1.56 1.3 2.29 2.55 3.89 4.9 0.98 1.43 0.67 4.95 1 6.92 0.43 2.57-0.12 5.79-0.18 8.4-0.05 2.5-0.1 5-0.15 7.49-0.05 2.34-0.51 5.16 0.42 7.21 0.83 1.86 0.77 3.96 0.73 6.02-0.05 2.19 0.11 4.53-0.42 6.59-0.64 2.45-2.2 3.52-3.26 5.62-0.76 1.51-4.63 2.88-5.77 2.85-2.25-0.05-3.78-1.39-4.8-2.52-1.05-1.16-1.82-2.36-2.5-3.36-0.56-0.83-1.05-1.4-1.38-2.14" fill-rule="evenodd" stroke="#000" stroke-width=".81143px" fill="#f0af49"/>
        <path id="path1969" d="m307.48 249.93c-0.64-0.7-0.51-3.12-0.48-4.82 0.04-1.55 0.11-3.11-0.19-4.5-0.37-1.67-2.81-3.21-4.25-4.01-2.36-1.3-4.48-2.59-7.13-3.77-3.3-1.47-6.26-2.09-9.45-3.84-5.85-3.23-12.18-5.84-18.29-8.56-2.54-1.13-5.9-2.32-7.11-4.98" stroke="#000" stroke-width=".81591px" fill="none"/>
        <path id="path1971" d="m317.26 237.87c-1.07-0.47-3.21-3.07-5.1-4.62-2.24-1.84-2.9-5.91-4.16-8.21-1.56-2.84-4.3-5.7-6.18-8.25-2.11-2.87-3.8-5.83-5.87-8.85-1.84-2.67-4.24-5.55-5.6-8.54-0.11-0.25-0.37-0.41-0.56-0.61" stroke="#000" stroke-width=".81591px" fill="none"/>
        <path id="path1973" d="m326.07 230.6c-0.24-0.52 0.08-4.19 0.12-5.7 0.05-2.7 0.11-5.4 0.16-8.1 0.05-2.32-0.01-4-0.74-6.01-0.92-2.57-1.59-3.48-4.22-5.21-1.88-1.24-3-4.67-4.19-6.4-2.03-2.95-4.68-4.96-6.18-8.26-0.36-0.79-1.45-1.74-1.97-2.45" stroke="#000" stroke-width=".81591px" fill="none"/>
        <path id="path1975" d="m455.97 256.96c-0.83-1.82 2.2-3.39 2.71-5.33 0.61-2.34 4.19-5.39 5.91-6.75 0.6-0.48 1.18-0.97 1.77-1.46 2.95-2.44 6.97-5.93 10.25-7.54 2.99-1.46 6.15-5.49 7.69-8.51 1.62-3.19 4.19-5.26 5.66-8.85 0.12-0.29 0.21-0.6 0.31-0.9" stroke="#000" stroke-width=".81591px" fill="none"/>
        <path id="path1977" d="m448.68 246.58c0.46-1.1 2.39-3.7 2.44-6.24 0.08-3.53-0.72-6.7-0.65-10.22 0.07-3.31-0.05-6.7 0.78-9.88 0.76-2.88 2.61-5.75 3.36-8.61 0.66-2.5 2.37-4.86 3.04-7.42 0.15-0.57 0.03-1.5 0.04-2.1" stroke="#000" stroke-width=".81591px" fill="none"/>
        <path id="path1979" d="m434.54 233.02c0.33-1.27 0.93-3.16 0.97-5.37 0.05-2.37 1.3-5.22 1.89-7.45 0.57-2.17 2.22-3.8 3-5.33 0.2-0.39 0.4-0.79 0.6-1.18 0.82-1.62 0.54-4.82 1-6.58 0.65-2.45 1.22-5.11 2.75-7.13" stroke="#000" stroke-width=".81591px" fill="none"/>
        <path id="path1981" d="m418.59 222.72c-1.39-2.5-1.34-5.24-1.28-8.13 0.08-3.6 0.06-7.04 0.8-10.48 0.59-2.73 2.11-5.69 3.34-7.71 1.38-2.29 2.66-5.42 3.34-8.02 0.44-1.68 0.92-2.83 0.96-4.47" stroke="#000" stroke-width=".81591px" fill="none"/>
        <path id="path1983" d="m402.26 216.61c0.21-0.78 0.09-3.94 0.12-5.69 0.05-2.21-2.69-4.95-3.9-6.7-1.1-1.6-1.91-5.35-1.87-7.25 0.06-2.91-1.05-5.01-0.99-7.82 0.06-2.69-0.47-4.85-0.42-7.51 0.04-1.66-0.41-3.42-1.05-4.83-0.08-0.18 0.01-0.4 0.01-0.6" stroke="#000" stroke-width=".81591px" fill="none"/>
        <path id="path1985" d="m382.4 214.01c-0.03-0.08-3.09-0.91-3.71-1.59-2.45-2.67-5.14-2.83-5.06-6.73 0.06-2.89 0.12-5.79 0.18-8.69 0.04-1.7 0.07-3.4 0.11-5.1 0.04-1.8 0.07-3.59 0.11-5.39 0.04-2.08-0.21-3.63-0.18-5.41 0.01-0.41-0.17-0.8-0.26-1.2" stroke="#000" stroke-width=".81591px" fill="none"/>
        <path id="path1987" d="m358.98 216.12c0.02-0.92-0.77-4.48-0.73-6.61 0.07-3.1 0.13-6.2 0.2-9.3 0.08-3.69-0.14-7.34-0.06-11.1 0.04-1.89-2.44-3.9-3.65-4.89-1.74-1.43-4.59-2.17-6.56-3.46" stroke="#000" stroke-width=".81591px" fill="none"/>
        <path id="path1989" d="m341.84 221.39c-1.11-0.91-4.78-3.43-5.94-5.55-1.12-2.04-0.38-9.53-0.33-12 0.01-0.6 0.03-1.2 0.04-1.8 0.07-3.13-0.16-6.41-0.09-9.6 0.07-3.1-1.44-8.08-3.84-9.4-0.19-0.1-0.38-0.21-0.57-0.31" stroke="#000" stroke-width=".81591px" fill="none"/>
        <path id="path1991" d="m424.3 225.57c-0.26-0.15-0.18-5.14-0.15-6.61 0.07-3.48 2.54-6.33 4.8-8.58 2.07-2.05 2.7-5.18 2.76-8.03 0.05-2.43 0.52-4.29 1.01-6.57 0.08-0.39 0.01-0.8 0.02-1.2" stroke="#000" stroke-width=".81591px" fill="none"/>
        <path id="path1993" d="m390.48 214.22c0.18-0.84 0.08-3.91 0.12-5.7 0.07-3.13-0.16-4.65-1.58-7.24-1.6-2.91-7.32-3.36-9.69-5.94-1.44-1.57-1.1-2.56-1.05-4.83" stroke="#000" stroke-width=".81591px" fill="none"/>
        <path id="path1995" d="m408.57 218.57c-0.6-0.66-0.13-7.59-0.08-9.6 0.06-3.22 0.99-6.17 1.05-9.27 0.02-0.6 0.03-1.2 0.04-1.8 0.04-1.93 0.66-3.67 0.7-5.68" stroke="#000" stroke-width=".81591px" fill="none"/>
        <path id="path1997" d="m439.93 237.36c0.07-3.61 0.24-11.12 2.34-15.24 1.37-2.7 2.1-5.7 3.62-7.71" stroke="#000" stroke-width=".81591px" fill="none"/>
        <path id="path1999" d="m321.66 234.38c0.17-0.34-3.86-8.5-3.81-11.19 0.1-4.94 0.49-10.2-3.76-13.29-0.85-0.62-2.18-1.05-3.14-1.58" stroke="#000" stroke-width=".81591px" fill="none"/>
        <path id="path2001" d="m304.52 253.45c-2.72-1.98-6.62-1.07-8.82-5.92-0.28-0.61-0.55-1.21-0.83-1.82-1.41-3.11-4.13-3.92-6.6-1.97-1.97 1.57-4.93 1.38-7.24 1.32" stroke="#000" stroke-width=".81591px" fill="none"/>
        <path id="path2003" d="m348.25 218.85c-1.43 1.14-0.44-3.8-1.33-5.43-2.77-5.04-4.8-9.33-1.18-12.93 1.21-1.19 0.69-5.16 0.72-6.88" stroke="#000" stroke-width=".81591px" fill="none"/>
        <path id="path2067" d="m354.51 369.2c-0.59 2.25-0.07 3.63-0.12 5.73-0.03 1.4 0.36 2.89-0.09 4.43-0.13 0.42-0.21 0.86-0.31 1.29-0.42 1.72-0.36 3.67-0.4 5.46-0.05 2.21-0.38 4.47-0.43 6.76-0.04 2.25 1.91 2.89 3.33 4.25 1.88 1.8 5.67 1.44 8.22 1.51 2.28 0.05 4.55 0.11 6.83 0.17 1.99 0.05 3.98 0.1 5.97 0.15s3.98 0.1 5.97 0.15c2.58 0.06 5.75-1.62 6.62-3.48 0.81-1.75 1.71-2.83 2.94-4.61 1.27-1.85 1.15-3.81 0.11-5.47-0.83-1.34-1.95-1.63-1.91-3.69 0.03-1.57 0.06-3.13 0.1-4.69 0.02-1.39 0.05-2.78 0.08-4.16 0.01-0.52 0.02-1.04 0.04-1.57" fill-rule="evenodd" stroke="#000" stroke-width=".53376px" fill="#f0af49"/>
      </g>
      <g id="g4466">
        <path id="path4370" d="m579.32 267.77c15.07 1.87-5.43 147.99-39.47 182.11-33.71 0-101.15 10.99-123.26 6.78s-17.33-16.22-17.33-22.64-1.52-13.78 20.59-17.99c22.1-4.2 67.84-5.26 101.55-5.26s21.91-151.94 44.01-147.73c22.11 4.21 13.91-1.69 13.91 4.73z" stroke="#130e08" stroke-width=".31802" fill="#f05649"/>
        <g id="g4396">
          <g id="g4389" stroke="#130e08" transform="matrix(1.5033 0 0 1.9753 -286.41 -261.19)">
            <rect id="rect4383" rx="5.3311" height="16.22" width="50.63" y="254.34" x="545.76" stroke-width=".57925"/>
            <path id="path4385" d="m540.89 227.04a7.1435 14.388 0 1 1 -14.28 0 7.1435 14.388 0 1 1 14.28 0z" stroke-width=".5" transform="translate(60.38 34.41)"/>
            <path id="path4387" d="m540.89 227.04a7.1435 14.388 0 1 1 -14.28 0 7.1435 14.388 0 1 1 14.28 0z" stroke-width=".5" transform="translate(14.38 34.41)"/>
          </g>
          <path id="path4394" d="m589.47 241.35c-0.22 0.85 0.05 1.65 0.36 2.89 0.19 0.78 0 1.88 0 2.7 0 1.11-1.22 2.14-1.99 2.52-1.64 0.82-4.17-0.47-5.22-1.26-0.65-0.48-1.09-2.1-1.09-2.88v-3.79 5.41c0 1.45-0.68 2.31-1.62 3.24-0.51 0.51-2.68-1.6-3.06-1.98-0.96-0.95-1.48-2.5-1.81-3.78-0.19-0.76-0.18-1.56-0.18-2.35v7.75c0 1.46-1.79 1.04-2.7 0.36-0.9-0.67-1.53-1.26-2.34-2.34-0.82-1.09-1.27-1.95-1.27-3.42v-1.63 3.97c0 1.57-0.4 2.82-1.62 3.42-1.19 0.6-2.47 0.04-3.24-0.54-1.04-0.78-1.17-1.62-1.44-2.7-0.33-1.3-0.37-2.41-0.37-3.79v1.09c0 1.39-0.18 2.6-0.18 3.96 0 0.89-1.5 2.18-2.16 3.07-0.88 1.17-2.23-0.07-3.42-0.54-1.11-0.45-1.45-2.29-1.45-3.25v-3.6c0-1.18 0.03-2.22 0.36-2.89 0.19-0.36 4.6 0 5.41 0 1.41 0 2.72 0.18 4.15 0.18h19.47c0.93 0 1.58 0.42 2.52 0.18 0.68-0.17 2.23 0.09 2.89 0z" fill-rule="evenodd" stroke="#000" stroke-width="1px" fill="#f0af49"/>
        </g>
      </g>
      <g id="g4475" transform="matrix(-.80477 0 0 1 665.5 0)">
        <path id="path4477" d="m579.32 267.77c15.07 1.87-5.43 147.99-39.47 182.11-33.71 0-101.15 10.99-123.26 6.78s-17.33-16.22-17.33-22.64-1.52-13.78 20.59-17.99c22.1-4.2 67.84-5.26 101.55-5.26s21.91-151.94 44.01-147.73c22.11 4.21 13.91-1.69 13.91 4.73z" stroke="#130e08" stroke-width=".31802" fill="#f05649"/>
        <g id="g4479">
          <g id="g4481" stroke="#130e08" transform="matrix(1.5033 0 0 1.9753 -286.41 -261.19)">
            <rect id="rect4483" rx="5.3311" height="16.22" width="50.63" y="254.34" x="545.76" stroke-width=".57925"/>
            <path id="path4485" d="m540.89 227.04a7.1435 14.388 0 1 1 -14.28 0 7.1435 14.388 0 1 1 14.28 0z" stroke-width=".5" transform="translate(60.38 34.41)"/>
            <path id="path4487" d="m540.89 227.04a7.1435 14.388 0 1 1 -14.28 0 7.1435 14.388 0 1 1 14.28 0z" stroke-width=".5" transform="translate(14.38 34.41)"/>
          </g>
          <path id="path4489" d="m589.47 241.35c-0.22 0.85 0.05 1.65 0.36 2.89 0.19 0.78 0 1.88 0 2.7 0 1.11-1.22 2.14-1.99 2.52-1.64 0.82-4.17-0.47-5.22-1.26-0.65-0.48-1.09-2.1-1.09-2.88v-3.79 5.41c0 1.45-0.68 2.31-1.62 3.24-0.51 0.51-2.68-1.6-3.06-1.98-0.96-0.95-1.48-2.5-1.81-3.78-0.19-0.76-0.18-1.56-0.18-2.35v7.75c0 1.46-1.79 1.04-2.7 0.36-0.9-0.67-1.53-1.26-2.34-2.34-0.82-1.09-1.27-1.95-1.27-3.42v-1.63 3.97c0 1.57-0.4 2.82-1.62 3.42-1.19 0.6-2.47 0.04-3.24-0.54-1.04-0.78-1.17-1.62-1.44-2.7-0.33-1.3-0.37-2.41-0.37-3.79v1.09c0 1.39-0.18 2.6-0.18 3.96 0 0.89-1.5 2.18-2.16 3.07-0.88 1.17-2.23-0.07-3.42-0.54-1.11-0.45-1.45-2.29-1.45-3.25v-3.6c0-1.18 0.03-2.22 0.36-2.89 0.19-0.36 4.6 0 5.41 0 1.41 0 2.72 0.18 4.15 0.18h19.47c0.93 0 1.58 0.42 2.52 0.18 0.68-0.17 2.23 0.09 2.89 0z" fill-rule="evenodd" stroke="#000" stroke-width="1px" fill="#f0af49"/>
        </g>
      </g>
    </g>
  </g>
  <metadata>
    <rdf:RDF>
      <cc:Work>
        <dc:format>image/svg+xml</dc:format>
        <dc:type rdf:resource="http://purl.org/dc/dcmitype/StillImage"/>
        <cc:license rdf:resource="http://creativecommons.org/licenses/publicdomain/"/>
        <dc:publisher>
          <cc:Agent rdf:about="http://openclipart.org/">
            <dc:title>Openclipart</dc:title>
          </cc:Agent>
        </dc:publisher>
        <dc:title>Strengthen</dc:title>
        <dc:date>2006-12-25T17:31:31</dc:date>
        <dc:description>activity, athletics, boy, child, clip art, clipart, exercise, image, media, people, png, public domain, sport, strength, svg, training, weight, </dc:description>
        <dc:source>http://openclipart.org/detail/2267/strengthen-by-machovka</dc:source>
        <dc:creator>
          <cc:Agent>
            <dc:title>Machovka</dc:title>
          </cc:Agent>
        </dc:creator>
        <dc:subject>
          <rdf:Bag>
            <rdf:li>activity</rdf:li>
            <rdf:li>athletics</rdf:li>
            <rdf:li>boy</rdf:li>
            <rdf:li>child</rdf:li>
            <rdf:li>clip art</rdf:li>
            <rdf:li>clipart</rdf:li>
            <rdf:li>exercise</rdf:li>
            <rdf:li>image</rdf:li>
            <rdf:li>media</rdf:li>
            <rdf:li>people</rdf:li>
            <rdf:li>png</rdf:li>
            <rdf:li>public domain</rdf:li>
            <rdf:li>sport</rdf:li>
            <rdf:li>strength</rdf:li>
            <rdf:li>svg</rdf:li>
            <rdf:li>training</rdf:li>
            <rdf:li>weight</rdf:li>
          </rdf:Bag>
        </dc:subject>
      </cc:Work>
      <cc:License rdf:about="http://creativecommons.org/licenses/publicdomain/">
        <cc:permits rdf:resource="http://creativecommons.org/ns#Reproduction"/>
        <cc:permits rdf:resource="http://creativecommons.org/ns#Distribution"/>
        <cc:permits rdf:resource="http://creativecommons.org/ns#DerivativeWorks"/>
      </cc:License>
    </rdf:RDF>
  </metadata>
</svg>
