<?xml version="1.0" encoding="UTF-8" standalone="no"?>
<!-- Created with Inkscape (http://www.inkscape.org/) -->
<svg
   xmlns:dc="http://purl.org/dc/elements/1.1/"
   xmlns:cc="http://creativecommons.org/ns#"
   xmlns:rdf="http://www.w3.org/1999/02/22-rdf-syntax-ns#"
   xmlns:svg="http://www.w3.org/2000/svg"
   xmlns="http://www.w3.org/2000/svg"
   xmlns:sodipodi="http://sodipodi.sourceforge.net/DTD/sodipodi-0.dtd"
   xmlns:inkscape="http://www.inkscape.org/namespaces/inkscape"
   version="1.0"
   width="711.78613"
   height="985.42792"
   id="svg11116"
   sodipodi:version="0.32"
   inkscape:version="0.46"
   sodipodi:docname="taekwandofighter.svg"
   inkscape:output_extension="org.inkscape.output.svg.inkscape">
  <metadata
     id="metadata11801">
    <rdf:RDF>
      <cc:Work
         rdf:about="">
        <dc:format>image/svg+xml</dc:format>
        <dc:type
           rdf:resource="http://purl.org/dc/dcmitype/StillImage" />
      </cc:Work>
    </rdf:RDF>
  </metadata>
  <sodipodi:namedview
     inkscape:window-height="713"
     inkscape:window-width="640"
     inkscape:pageshadow="2"
     inkscape:pageopacity="0.0"
     guidetolerance="10.0"
     gridtolerance="10.0"
     objecttolerance="10.0"
     borderopacity="1.0"
     bordercolor="#666666"
     pagecolor="#ffffff"
     id="base"
     showgrid="false"
     inkscape:zoom="0.26390158"
     inkscape:cx="126.50991"
     inkscape:cy="167.87936"
     inkscape:window-x="860"
     inkscape:window-y="236"
     inkscape:current-layer="svg11116" />
  <defs
     id="defs11118">
    <inkscape:perspective
       sodipodi:type="inkscape:persp3d"
       inkscape:vp_x="0 : 167.87936 : 1"
       inkscape:vp_y="0 : 1000 : 0"
       inkscape:vp_z="253.01982 : 167.87936 : 1"
       inkscape:persp3d-origin="126.50991 : 111.91958 : 1"
       id="perspective11803" />
  </defs>
  <g
     transform="matrix(2.8127586,0,0,2.9352402,-703.32824,-1060.9597)"
     id="layer1">
    <g
       transform="matrix(1.7242695,0,0,1.6574698,-364.38301,-458.37496)"
       id="g11709">
      <path
         d="M 367.53802,533.71745 L 360.56386,536.97206 L 356.84431,543.71374 L 358.93656,548.59565 L 361.9587,551.15284 L 364.51589,550.45542 L 366.60813,544.17868 L 369.63027,544.64363 L 367.07308,549.99048 L 368.00296,551.38531 L 370.09521,550.45542 L 375.20959,540.69161 L 377.53431,532.78756 L 367.53802,533.71745 z"
         id="path11186"
         style="fill:#e9c6af;fill-rule:evenodd;stroke:#000000;stroke-width:1px;stroke-linecap:round;stroke-linejoin:round;stroke-opacity:1" />
      <path
         d="M 375.67454,681.10461 L 374.74465,690.86843 L 377.53431,695.05292 L 382.88116,696.44776 L 389.62285,696.68023 L 391.01768,695.51787 L 390.08779,687.38135 L 386.60071,677.38506 L 375.67454,681.10461 z"
         id="path11194"
         style="fill:#e9c6af;fill-rule:evenodd;stroke:#000000;stroke-width:1px;stroke-linecap:round;stroke-linejoin:round;stroke-opacity:1" />
      <path
         d="M 480.75182,680.17473 L 486.09867,685.28911 L 497.48979,688.77618 L 500.97687,689.00866 L 500.97687,687.61382 L 502.60417,686.68394 L 498.65215,682.49944 L 488.19092,677.15259 L 477.72968,674.5954 L 480.75182,680.17473 z"
         id="path11196"
         style="fill:#e9c6af;fill-rule:evenodd;stroke:#000000;stroke-width:1px;stroke-linecap:round;stroke-linejoin:round;stroke-opacity:1" />
      <path
         d="M 422.40138,567.65834 L 416.12464,579.97935 L 413.10251,606.48114 L 412.87003,618.33721 L 405.66341,624.38148 L 404.96599,628.79844 L 387.99554,651.11574 L 374.97712,672.9681 L 372.18746,680.17473 L 375.44206,684.82416 L 384.74094,689.93854 L 391.71509,691.79832 L 396.13206,681.33708 L 402.4088,671.80574 L 416.58958,661.80945 L 418.44936,654.37035 L 424.95857,649.48844 L 427.51576,634.61024 L 431.93273,630.19327 L 432.1652,623.45159 L 441.46407,615.54755 L 450.06553,615.78002 L 453.08767,610.43317 L 455.41239,618.80215 L 461.9216,636.23754 L 468.19834,646.00136 L 470.29058,656.23012 L 471.45294,658.55484 L 469.3607,665.29653 L 470.05811,677.15259 L 472.6153,681.33708 L 477.03227,683.6618 L 486.09867,683.19686 L 492.84036,681.10461 L 495.63002,676.68765 L 491.21305,667.1563 L 489.12081,665.06405 L 496.55991,648.32608 L 496.09496,629.26339 L 494.9326,620.8944 L 481.68171,596.9498 L 479.58946,588.11587 L 477.96216,581.60665 L 473.54519,573.23767 L 472.15036,570.21553 L 472.38283,557.89452 L 473.08025,548.82812 L 487.02856,523.25622 L 482.84407,515.58464 L 476.56733,515.35217 L 454.94744,549.52554 L 448.6707,539.99419 L 448.20576,514.88723 L 449.83306,508.37802 L 443.09138,505.58835 L 431.93273,509.3079 L 420.77408,510.93521 C 420.77408,510.93521 414.96228,514.18981 413.79992,514.18981 C 412.63756,514.18981 402.17633,513.95734 402.17633,513.95734 L 397.52689,514.65476 L 395.20217,516.97948 L 386.36824,518.37431 L 376.83689,524.41857 L 367.77049,532.78756 L 366.60813,534.64734 L 371.95499,536.27464 L 374.04723,543.48127 C 374.04723,543.48127 376.60442,540.22666 377.76678,540.69161 C 378.92914,541.15655 384.74094,538.36689 384.74094,538.36689 L 393.57487,536.97206 L 400.7815,538.59936 L 404.26858,536.97206 L 409.8479,539.52925 L 420.77408,539.99419 L 424.7261,560.91666 L 424.02868,565.5661 L 422.40138,567.65834 z"
         id="path11176"
         style="fill:#f9f9f9;fill-rule:evenodd;stroke:#000000;stroke-width:1px;stroke-linecap:round;stroke-linejoin:round;stroke-opacity:1" />
      <path
         d="M 447.81538,512.49583 L 476.56733,517.90936 L 457.03969,546.03846 L 454.71497,546.96835 L 448.01452,539.76172 L 446.91839,526.00421 L 447.81538,512.49583 z"
         id="path11182"
         style="fill:#e9c6af;fill-rule:evenodd;stroke:#000000;stroke-width:1px;stroke-linecap:round;stroke-linejoin:round;stroke-opacity:1" />
      <path
         d="M 449.60059,507.91307 L 442.88346,509.35791 L 446.34598,538.59936 L 451.46036,550.92037 L 454.4825,552.78014 L 458.43452,552.3152 L 474.94002,524.65105 L 479.58946,515.35217 L 475.21372,514.63809 L 466.61271,531.5673 L 455.64486,546.5034 L 450.53048,536.50711 L 447.64869,521.01395 L 451.35246,511.50017 L 451.46036,507.91307 L 449.60059,507.91307 z"
         id="path11180"
         style="fill:#241c1c;fill-rule:evenodd;stroke:#000000;stroke-width:1px;stroke-linecap:round;stroke-linejoin:round;stroke-opacity:1" />
      <path
         d="M 460.06182,552.78014 L 453.32014,548.36318 L 447.0434,544.41116 L 439.83677,543.2488 L 436.81464,546.03846 L 436.58216,550.92037 L 436.81464,553.71003 L 437.04711,555.33733 L 446.11351,558.82441 L 451.46036,559.05688 L 456.80722,559.05688 L 460.06182,552.78014 z"
         id="path11188"
         style="fill:#e9c6af;fill-rule:evenodd;stroke:#000000;stroke-width:1px;stroke-linecap:round;stroke-linejoin:round;stroke-opacity:1" />
      <path
         d="M 424.26116,563.24138 L 439.6043,572.54025 C 439.6043,572.54025 448.6707,574.40003 450.06553,574.6325 C 451.46036,574.86497 462.38654,571.84284 462.38654,571.84284 L 467.50092,566.49598 L 471.91789,564.40374 L 471.68542,570.448 L 461.22418,576.49227 L 465.87362,579.51441 L 465.64115,592.53283 L 461.45665,623.68406 L 460.75924,627.40361 L 455.64486,626.24125 L 459.36441,608.34092 L 460.99171,584.62879 L 460.99171,578.81699 L 458.89946,577.65463 L 454.71497,579.97935 L 449.60059,578.11958 L 445.18362,581.60665 L 446.11351,601.59923 L 446.81093,620.66193 L 442.62643,621.12687 L 442.39396,609.03833 L 441.2316,591.60294 L 442.62643,586.48856 L 441.92902,581.14171 L 445.88104,577.42216 L 438.67441,576.95722 L 434.25745,574.86497 L 424.95857,568.58823 L 423.79621,566.03104 L 424.26116,563.24138 z"
         id="path11184"
         style="fill:#241c1c;fill-rule:evenodd;stroke:#000000;stroke-width:1px;stroke-linecap:round;stroke-linejoin:round;stroke-opacity:1" />
      <path
         d="M 455.41239,505.35588 L 450.06553,515.35217 L 450.298,524.1861 L 454.25003,529.06801 L 458.66699,530.46284 L 464.47879,528.3706 L 472.15036,522.79127 L 476.10238,515.81712 L 475.86991,509.77285 L 455.41239,505.35588 z"
         id="path11190"
         style="fill:#e9c6af;fill-rule:evenodd;stroke:#000000;stroke-width:1px;stroke-linecap:round;stroke-linejoin:round;stroke-opacity:1" />
      <path
         d="M 455.17991,496.75442 C 452.67248,498.91232 451.69284,507.21566 451.69284,507.21566 L 450.298,513.72487 L 451.92531,516.04959 L 456.34227,511.16768 C 456.34227,511.16768 457.96958,511.63262 457.96958,512.56251 C 457.96958,513.4924 458.66699,518.83925 458.66699,518.83925 L 461.45665,520.9315 L 466.80351,521.16397 L 470.05811,516.747 L 472.15036,514.42228 L 473.77766,514.88723 L 471.68542,519.30419 L 476.10238,515.35217 L 478.89204,509.3079 L 478.89204,503.26364 L 476.10238,497.68431 L 470.75553,495.12712 L 460.52677,495.82454 C 460.52677,495.82454 456.41397,495.69238 455.17991,496.75442 z"
         id="path11192"
         style="fill:#241f1c;fill-rule:evenodd;stroke:#000000;stroke-width:1px;stroke-linecap:round;stroke-linejoin:round;stroke-opacity:1" />
      <path
         d="M 471.68542,536.50711 L 478.89204,552.54767 C 478.89204,552.54767 470.75553,553.01261 469.12823,553.01261 C 467.50092,553.01261 456.57474,550.45542 456.57474,550.45542 L 453.55261,569.82515 L 456.10192,571.2612 L 464.24632,571.39456 L 480.0544,571.14542 L 492.60788,571.61036 L 496.55991,563.24138 L 498.18721,551.85026 L 493.53777,533.71745 L 488.88833,524.65105 L 482.14665,519.30419 L 471.68542,536.50711 z"
         id="path11178"
         style="fill:#f9f9f9;fill-rule:evenodd;stroke:#000000;stroke-width:1px;stroke-linecap:round;stroke-linejoin:round;stroke-opacity:1" />
      <path
         d="M 472.38283,545.80599 L 473.77766,545.10857 L 477.96216,543.2488 L 487.4935,528.83554 L 485.40126,523.95363 L 485.63373,522.09386 L 484.00643,518.37431 L 479.35699,517.67689 L 477.49721,524.41857 L 471.22047,533.71745 L 469.12823,543.71374 L 472.38283,545.80599 z"
         id="path11198"
         style="fill:#f9f9f9;fill-opacity:1;fill-rule:evenodd;stroke:none;stroke-width:1px;stroke-linecap:round;stroke-linejoin:round;stroke-opacity:1" />
    </g>
  </g>
</svg>
